<?xml version="1.0" encoding="UTF-8"?>
<svg id="Layer_2" data-name="Layer 2" xmlns="http://www.w3.org/2000/svg" viewBox="0 0 1316.07 512.79">
  <defs>
    <style>
      .cls-1 {
        fill: #f5f5f3;
      }

      .cls-2 {
        fill: #595f5d;
      }

      .cls-3 {
        fill: #c9d1d3;
      }

      .cls-4 {
        fill: #f2f1ef;
      }

      .cls-5 {
        fill: #008ea4;
      }

      .cls-6 {
        fill: #50534c;
      }

      .cls-7 {
        fill: #bcc2c2;
      }

      .cls-8 {
        fill: #dee6e9;
      }

      .cls-9 {
        fill: #231f20;
      }
    </style>
  </defs>
  <g>
    <g>
      <path class="cls-8" d="m488.88,438.34c4.42,22.48,9.17,46.87,13.18,59.9,1.74,5.67,3.35,9.19,4.72,9.46,1.55.31,5.71,1.37,10.59,2.44,3.78.83,8,1.67,11.79,2.18,5.55.74,10.17.77,11.11-1,.36-.67,2.1-4.35,4.88-10.1,3.01-6.23,7.23-14.89,12.22-24.84.53-1.05,1.06-2.12,1.6-3.21.83-1.67,1.67-3.38,2.53-5.14,4.75-9.71,9.99-20.69,15.44-31.61,6.86-13.74,14.05-27.38,21.03-38.28,7.03-10.98,13.86-18.9,19.77-23.6,4.76-3.78,8.92-5.47,12.12-4.99-8.7-2.65-19.19-5.44-30.73-8.25-16.55-4.03-35.25-8.11-53.92-11.96-7.21-1.48-14.41-2.94-21.48-4.33-17.04-3.37-33.31-6.44-47.05-8.96-23.36-4.29-39.38-7.02-39.38-7.02,2.71,2.03,5.76,4.16,9.06,7.07,4.11,3.62,8.6,8.46,13.29,15.83,4.66,7.32,9.5,17.13,14.36,30.73,3.86,10.81,7.73,24.01,11.5,40.25.68,2.94,1.37,5.98,2.04,9.13.44,2.06.89,4.17,1.33,6.32Z"/>
      <g>
        <g>
          <path class="cls-4" d="m629.05,372.46c.04-35.04-114.34-46.14-114.34-46.14l-6.45,31.75c22.34,8.36,70.64,22.79,120.79,14.4Z"/>
          <path class="cls-7" d="m508.26,358.06l-4.55,22.39c103.5,31.45,121.52,13.49,125.04-4.82.21-1.08.3-2.14.31-3.17-50.15,8.39-98.45-6.03-120.79-14.4Z"/>
        </g>
        <g>
          <path class="cls-2" d="m528.6,356.55c-2.41,14.75-12.35,25.41-22.18,23.8-9.84-1.61-15.85-14.88-13.44-29.63,2.42-14.75,12.35-25.41,22.18-23.8,9.84,1.61,15.85,14.88,13.44,29.63Z"/>
          <path class="cls-9" d="m506.33,380.88c-10.11-1.65-16.34-15.22-13.88-30.24,2.46-15.02,12.68-25.89,22.79-24.24,10.11,1.65,16.33,15.22,13.88,30.24-2.46,15.02-12.68,25.9-22.79,24.24Zm8.74-53.43c-9.53-1.56-19.21,8.92-21.57,23.36-2.36,14.44,3.47,27.46,13,29.02,9.53,1.56,19.21-8.92,21.57-23.36,2.36-14.44-3.47-27.46-13-29.02Z"/>
        </g>
        <path class="cls-6" d="m528.6,356.55c-1.74,10.63-8.89,18.31-15.98,17.15-7.09-1.16-11.42-10.72-9.68-21.35,1.74-10.63,8.9-18.31,15.98-17.15,7.09,1.16,11.42,10.72,9.68,21.35Z"/>
      </g>
      <path class="cls-8" d="m1046.76,433.19c.81.2,1.69.41,2.61.62,1.16.27,2.39.54,3.62.82,2.92.65,5.9,1.31,8.25,1.88,1.89.46,4.54.92,7.29,1.32,1.63.23,3.3.44,4.86.62,1.55.17,3.01.3,4.24.38.89-.9,1.81-1.83,2.76-2.78,8.29-8.27,18.64-17.97,28.32-27.12,7.94-7.51,15.43-14.64,20.96-20.31,2.79-2.86,5.09-5.35,6.68-7.32-1.2,0-4.38.31-8.48.75-4.14.45-9.21,1.05-14.11,1.62-8.28.96-16.09,1.85-18.13,1.85-2.43,0-14.52-1.91-25.26-3.55-4.54-.69-8.84-1.34-12.06-1.78-2.54-.34-4.41-.55-5.21-.55-.32,2.82-.61,5.64-.89,8.49-.55,5.63-1.07,11.38-1.71,17.5-.79,7.45-1.76,15.44-3.21,24.44-.17,1.03-.34,2.07-.52,3.12Z"/>
      <path class="cls-1" d="m51.59,241.65c.98-1.64,2.59-3.18,5.23-4.48,3.81-1.87,9.76-3.24,19.09-3.67,3.93-.18,8.45-.2,13.67-.01,42.53,1.51,102.57,7.54,168.63,20.81,6.17,1.24,13.1,2.58,20.63,4.01,53.31,10.09,136.67,24.26,194.63,35.01,21.46,3.98,39.44,7.49,51.11,10.15,14.66,3.34,34.8,7.08,56.51,10.97,24.23,4.35,50.41,8.88,73.09,13.27,18.41,3.56,34.52,7.03,45.41,10.21,2.75.8,5.16,1.59,7.19,2.35,13.31,4.99,45.08,9.35,79.81,11.08,28.12,1.4,58.18,1.08,81.97-2.03,10.76-1.41,20.24-3.39,27.67-6.03,10.62-3.79,20.35-7.94,29.28-12.15,18.12-8.53,32.97-17.29,45.33-23.62,3.57-1.83,6.92-3.45,10.09-4.81,2.14-.92,4.2-1.72,6.17-2.37-.62-.14-1.25-.27-1.87-.41-1.83-.4-3.68-.8-5.53-1.2-.64-.14-1.28-.27-1.92-.41-2.15-.46-4.32-.91-6.5-1.36-1.36-.28-2.72-.56-4.09-.84-2-.41-4.01-.81-6.03-1.22-1.11-.22-2.22-.44-3.34-.67-2.72-.54-5.46-1.07-8.21-1.61-4.08-.79-8.19-1.58-12.34-2.36-15.25-2.88-31-5.73-47.15-8.66-18.19-3.31-36.89-6.73-55.97-10.43-10.05-1.95-20.2-3.98-30.43-6.11-10.92-2.28-21.95-4.57-33.05-6.86-29.4-6.09-59.36-12.24-89.48-18.36-3.94-.8-7.88-1.6-11.83-2.4-6.11-1.24-12.22-2.48-18.33-3.71-4.04-.82-8.09-1.63-12.13-2.45-20-4.03-39.99-8.02-59.85-11.96-32.67-6.48-64.97-12.79-96.4-18.82-14.74-2.83-29.28-5.59-43.57-8.28-40.47-7.62-77.43-15.41-111.88-21.96-12.87-2.45-25.4-4.72-37.62-6.75-62.37-10.35-113.26-16.16-141.21-16.93-3.19-.09-6.4-.15-9.6-.08-2.23.06-4.45.18-6.66.42-6.02.74-13.59,1.61-21.82,3.72-28.96,7.44-30.12,14.27-47.06,19.71-12.18,3.91-27.42,3.03-37.21,7.64-14.22,6.7-23.81,12.57-25.73,19.65-.22.83-.34,1.67-.28,2.53.19,2.88,2.06,6.17,5.21,9.71,6.45,7.26,18.26,15.57,31.91,23.65,4.65,2.75,9.52,5.48,14.46,8.13Z"/>
      <path class="cls-3" d="m104.17,265.87c3.39,1.26,6.33,2.25,8.71,2.93,2.25.65,4.45,1.33,6.67,2.08,2.05.7,4.17,1.39,6.36,2.08,4.07,1.29,8.36,2.58,12.85,3.85,14.88,4.23,31.94,8.38,50.48,12.4,38.24,8.29,82.76,16.04,127.35,22.83,4.17.64,8.34,1.26,12.51,1.88,74.1,11,93.68,26.72,142.79,36.41,6.92,1.37,13.87,2.72,20.83,4.06,39.89,7.66,80.31,14.81,120.63,21.07,7.75,1.21,15.51,2.38,23.25,3.51,10.14,1.49,20.26,2.92,30.36,4.28,11.81,1.59,14.5-2.37,59.15,2.63,13.13,1.47,29.89,3.71,51.57,7.1,20.81,3.25,39.46,5.98,57.33,8.17,34.59,4.23,66.34,6.4,105.45,6.29,5.24-.02,10.43-.07,15.58-.18,47.8-.94,91.68-5.51,130.68-11.94,2.66-.44,5.3-.88,7.92-1.32,14.64-2.46,28.68-5,41.63-8.16,4.44-1.09,8.75-2.25,12.91-3.5,3.58-1.08,7.05-2.23,10.39-3.46,2.24-.64,3.71-3.13,4.65-6.14.96-3.08,1.36-6.35,1.46-9.56.16-5.01.02-10.05.02-15.07-1.53-1-4.03-2.17-7.44-3.5-4.17-1.63-9.68-3.49-16.44-5.58-3.68-1.13-7.73-2.33-12.13-3.59-11.86-3.4-26.26-7.23-42.83-11.42-17.75-4.49-37.99-9.39-60.26-14.61-7.12-1.67-14.44-3.37-21.96-5.1-3.57-.82-7.19-1.65-10.85-2.49-2.21-.5-4.46-1-6.7-1.49-2.13.71-4.35,1.58-6.67,2.59-2.7,1.17-5.54,2.54-8.52,4.05-8.7,4.41-18.67,10.09-30.16,16.08-13.06,6.81-28.1,14.02-45.53,20.23-14.45,5.15-36.64,7.77-60.98,8.58-36.07,1.2-76.85-1.57-104.07-5.95-10.49-1.69-18.97-3.62-24.39-5.65-9.34-3.5-26.65-7.44-47.42-11.54-43.62-8.61-102.5-17.9-134.79-25.26-.76-.17-1.55-.35-2.36-.53-22.03-4.89-63.12-12.35-107.77-20.28-56.99-10.13-119.78-21.03-156.23-28.36-5.24-1.05-10.44-2.06-15.59-3.02-41.84-7.81-80.81-12.72-113.85-15.44-14.25-1.17-27.39-1.94-39.19-2.36-2.19-.08-4.26-.12-6.21-.13-7.94-.04-13.99.46-18.59,1.34-4.92.94-8.2,2.32-10.37,3.93-1.28.94-2.18,1.96-2.81,3.03,1.31.7,2.63,1.4,3.95,2.09,1.64.86,3.28,1.71,4.93,2.54,5.14,2.62,10.28,5.12,15.25,7.45,4.9,2.3,9.64,4.42,14.08,6.33,1.29.56,2.56,1.09,3.79,1.61,2.33.97,4.56,1.87,6.66,2.7.69.27,1.36.53,2.02.78.65.25,1.28.49,1.9.72Z"/>
      <g>
        <path d="m246.01,192.47h3.92c1.03,0,1.52-.59,1.74-1.39.3-1.09.11-2.56.1-3.47,0-1.27.29-2.68-.22-3.9-.26-.62-.75-1.06-1.63-1.06-.3,0-.67-.03-1.09-.05-.6-.04-1.3-.08-1.96-.05-.53.03-1.05.1-1.48.26-.73.26-1.23.77-1.23,1.69v4.6c0,.78-.16,1.78.28,2.48.33.53.91.88,1.57.88Z"/>
        <path d="m210.11,187.51h3.92c1.03,0,1.52-.59,1.74-1.39.3-1.09.11-2.56.1-3.47,0-1.27.29-2.68-.22-3.9-.26-.62-.75-1.06-1.63-1.06-.3,0-.67-.03-1.09-.05-.6-.04-1.3-.08-1.96-.05-.53.03-1.05.1-1.48.26-.73.26-1.23.77-1.23,1.69v4.59c0,.78-.16,1.78.28,2.48.33.53.91.88,1.57.88Z"/>
        <path d="m280.62,198.52h3.77c.99,0,1.46-.57,1.67-1.33.29-1.04.11-2.46.1-3.33,0-1.22.28-2.57-.21-3.74-.25-.6-.72-1.01-1.57-1.01-.28,0-.65-.02-1.05-.05-.58-.04-1.25-.08-1.88-.05-.51.02-1.01.09-1.43.25-.7.25-1.18.74-1.18,1.63v4.41c0,.75-.15,1.71.26,2.39.31.51.87.84,1.51.84Z"/>
        <path d="m297.44,201.54h3.77c.99,0,1.46-.57,1.67-1.33.29-1.04.11-2.46.1-3.33,0-1.22.28-2.57-.21-3.74-.25-.6-.72-1.01-1.57-1.01-.28,0-.65-.02-1.05-.05-.58-.04-1.25-.08-1.88-.05-.51.02-1.01.09-1.43.25-.7.25-1.18.74-1.18,1.63v4.41c0,.75-.15,1.71.26,2.39.31.51.87.84,1.51.84Z"/>
        <path d="m316.97,205.62h3.77c.99,0,1.46-.57,1.67-1.33.29-1.04.11-2.46.1-3.33,0-1.22.28-2.57-.21-3.74-.25-.6-.72-1.01-1.57-1.01-.28,0-.65-.03-1.05-.05-.58-.04-1.25-.08-1.88-.05-.51.02-1.01.09-1.43.25-.7.25-1.18.74-1.18,1.63v4.41c0,.75-.15,1.71.26,2.38.31.51.87.84,1.51.84Z"/>
        <path d="m335.75,209.08h3.77c.99,0,1.46-.57,1.67-1.33.29-1.04.11-2.46.1-3.33,0-1.22.28-2.57-.21-3.74-.25-.6-.72-1.01-1.57-1.01-.28,0-.65-.02-1.05-.05-.58-.04-1.25-.08-1.88-.05-.51.02-1.01.09-1.43.25-.7.25-1.18.74-1.18,1.63v4.41c0,.75-.15,1.71.26,2.39.31.51.87.84,1.51.84Z"/>
        <path d="m371.97,215.69h3.77c.99,0,1.46-.57,1.68-1.33.29-1.04.11-2.46.1-3.33,0-1.22.28-2.57-.21-3.74-.25-.6-.72-1.01-1.57-1.01-.28,0-.65-.02-1.05-.05-.58-.04-1.25-.08-1.88-.05-.51.02-1.01.09-1.43.25-.7.25-1.18.74-1.18,1.63v4.41c0,.75-.15,1.71.26,2.38.31.51.87.84,1.51.84Z"/>
        <path d="m352.47,211.85h3.77c.99,0,1.46-.57,1.68-1.33.29-1.04.1-2.46.1-3.33,0-1.22.28-2.57-.21-3.74-.25-.6-.72-1.01-1.57-1.01-.29,0-.65-.02-1.05-.05-.58-.04-1.25-.08-1.88-.05-.51.02-1.01.09-1.43.25-.7.25-1.18.74-1.18,1.63v4.41c0,.75-.15,1.71.26,2.39.31.51.87.84,1.51.84Z"/>
        <path d="m390.38,219.59h3.77c.99,0,1.46-.57,1.68-1.33.29-1.04.11-2.46.1-3.33,0-1.22.28-2.57-.21-3.74-.25-.6-.72-1.01-1.57-1.01-.28,0-.65-.02-1.05-.05-.58-.04-1.25-.08-1.88-.05-.51.02-1.01.09-1.43.25-.7.25-1.18.74-1.18,1.63v4.41c0,.75-.15,1.71.26,2.38.31.51.87.84,1.51.84Z"/>
        <path d="m408.28,222.91h3.77c.99,0,1.46-.57,1.68-1.33.29-1.04.11-2.46.1-3.33,0-1.22.28-2.57-.21-3.74-.25-.6-.72-1.01-1.57-1.01-.29,0-.65-.02-1.05-.05-.58-.04-1.25-.08-1.88-.05-.51.02-1.01.09-1.43.25-.7.25-1.18.74-1.18,1.63v4.41c0,.75-.15,1.71.26,2.38.31.51.87.84,1.51.84Z"/>
        <path d="m426.78,226.87h3.77c.99,0,1.46-.57,1.68-1.33.29-1.04.11-2.45.1-3.33,0-1.22.28-2.57-.21-3.74-.25-.6-.72-1.01-1.57-1.01-.29,0-.65-.02-1.05-.05-.58-.04-1.25-.08-1.88-.05-.51.02-1.01.09-1.42.25-.7.25-1.18.74-1.18,1.63v4.41c0,.75-.15,1.71.26,2.38.31.51.87.84,1.51.84Z"/>
        <path d="m444.58,230.19h3.77c.99,0,1.46-.57,1.67-1.33.29-1.04.11-2.46.1-3.33,0-1.22.28-2.57-.21-3.74-.25-.6-.72-1.01-1.57-1.01-.28,0-.65-.02-1.05-.05-.58-.04-1.25-.08-1.88-.05-.51.02-1.01.09-1.43.25-.7.25-1.18.74-1.18,1.63v4.41c0,.75-.15,1.71.26,2.38.31.51.87.84,1.51.84Z"/>
        <path d="m464.99,234.49h3.76c.99,0,1.46-.56,1.68-1.33.29-1.04.11-2.46.1-3.33,0-1.22.28-2.57-.21-3.74-.25-.6-.72-1.01-1.57-1.01-.28,0-.65-.02-1.05-.05-.58-.04-1.25-.08-1.88-.05-.51.02-1.01.09-1.43.25-.7.25-1.18.74-1.18,1.63v4.41c0,.75-.15,1.71.26,2.39.31.51.87.84,1.51.84Z"/>
        <path d="m744.94,287.95h3.23c.85,0,1.25-.49,1.44-1.14.25-.89.09-2.11.08-2.86,0-1.05.24-2.21-.18-3.21-.22-.52-.62-.87-1.34-.87-.24,0-.56-.02-.9-.04-.5-.03-1.07-.07-1.62-.04-.44.02-.87.08-1.22.21-.6.22-1.01.63-1.01,1.4v3.79c0,.65-.13,1.47.23,2.05.27.43.75.72,1.3.72Z"/>
        <path d="m761.98,291.27h3.23c.85,0,1.25-.49,1.44-1.14.25-.89.09-2.11.08-2.86,0-1.05.24-2.21-.18-3.21-.22-.51-.62-.87-1.34-.87-.24,0-.55-.02-.9-.04-.5-.03-1.07-.07-1.62-.04-.44.02-.86.08-1.22.21-.6.22-1.02.63-1.02,1.4v3.79c0,.65-.13,1.47.23,2.05.27.43.75.72,1.3.72Z"/>
        <path d="m778.65,294.74h3.23c.85,0,1.25-.49,1.44-1.14.25-.89.09-2.11.09-2.86,0-1.05.24-2.21-.18-3.21-.22-.51-.62-.87-1.34-.87-.24,0-.56-.02-.9-.04-.5-.03-1.07-.07-1.62-.04-.44.02-.87.08-1.22.21-.6.22-1.01.63-1.01,1.39v3.79c0,.65-.13,1.47.23,2.05.27.43.75.72,1.3.72Z"/>
        <path d="m795.32,297.98h3.23c.85,0,1.25-.49,1.44-1.14.25-.89.09-2.11.08-2.86,0-1.05.24-2.21-.18-3.21-.21-.52-.62-.87-1.34-.87-.24,0-.56-.02-.9-.04-.5-.03-1.07-.07-1.62-.04-.44.02-.86.08-1.22.21-.6.22-1.01.63-1.01,1.4v3.79c0,.65-.13,1.47.23,2.05.27.43.75.72,1.3.72Z"/>
        <path d="m811.98,301.48h3.23c.85,0,1.26-.48,1.44-1.14.25-.89.09-2.11.08-2.86,0-1.05.24-2.21-.18-3.21-.22-.52-.62-.87-1.35-.87-.24,0-.55-.02-.9-.04-.5-.03-1.07-.07-1.62-.04-.44.02-.87.08-1.22.21-.6.22-1.01.63-1.01,1.39v3.79c0,.65-.13,1.47.23,2.05.27.43.75.72,1.3.72Z"/>
        <path d="m828.65,304.98h3.23c.85,0,1.25-.49,1.44-1.14.25-.9.09-2.11.08-2.86,0-1.05.24-2.21-.18-3.21-.21-.52-.62-.87-1.34-.87-.24,0-.56-.02-.9-.04-.5-.03-1.07-.07-1.62-.04-.44.02-.87.08-1.22.21-.6.22-1.01.63-1.01,1.4v3.79c0,.65-.13,1.47.23,2.05.27.44.75.72,1.3.72Z"/>
        <path d="m844.86,308.22h3.23c.85,0,1.25-.49,1.44-1.14.25-.89.09-2.11.08-2.86,0-1.05.24-2.21-.18-3.21-.22-.52-.62-.87-1.34-.87-.24,0-.55-.02-.9-.04-.5-.03-1.07-.07-1.62-.04-.44.02-.86.08-1.22.21-.6.22-1.01.63-1.01,1.4v3.79c0,.65-.13,1.47.23,2.05.27.43.75.72,1.3.72Z"/>
        <path d="m860.05,310.64h2.88c.76,0,1.12-.43,1.28-1.02.22-.8.08-1.88.08-2.55,0-.94.21-1.97-.16-2.86-.19-.46-.55-.78-1.2-.78-.22,0-.5-.02-.8-.04-.45-.03-.96-.06-1.44-.04-.39.02-.77.07-1.09.19-.53.19-.9.56-.9,1.24v3.38c0,.58-.12,1.31.2,1.83.24.39.67.64,1.16.64Z"/>
        <path d="m875.06,313.36h2.88c.76,0,1.12-.43,1.28-1.02.22-.8.08-1.88.08-2.55,0-.94.21-1.97-.16-2.86-.19-.46-.55-.78-1.2-.78-.22,0-.5-.02-.8-.04-.45-.03-.96-.06-1.44-.04-.39.02-.77.07-1.09.19-.53.19-.91.56-.91,1.24v3.38c0,.58-.12,1.31.2,1.83.24.39.67.65,1.16.65Z"/>
        <path d="m890.07,316.07h2.88c.76,0,1.12-.43,1.28-1.02.22-.8.08-1.88.08-2.55,0-.94.21-1.97-.16-2.86-.19-.46-.55-.78-1.2-.78-.22,0-.5-.02-.8-.04-.45-.03-.96-.06-1.44-.04-.39.02-.77.07-1.09.19-.53.19-.9.56-.9,1.24v3.38c0,.58-.12,1.31.2,1.83.24.39.67.64,1.16.64Z"/>
        <path d="m905.35,319.46h2.88c.76,0,1.12-.43,1.28-1.02.22-.8.08-1.88.08-2.55,0-.94.22-1.97-.16-2.86-.19-.46-.55-.78-1.2-.78-.22,0-.5-.02-.8-.04-.44-.03-.95-.06-1.44-.04-.39.02-.77.07-1.09.19-.53.19-.9.56-.9,1.24v3.38c0,.58-.12,1.31.2,1.82.24.39.67.65,1.16.65Z"/>
        <path d="m919.98,322.42h2.88c.76,0,1.12-.43,1.28-1.02.22-.8.08-1.88.08-2.55,0-.94.22-1.97-.16-2.86-.19-.46-.55-.78-1.2-.78-.22,0-.5-.02-.8-.04-.44-.03-.95-.06-1.44-.04-.39.02-.77.07-1.09.19-.53.19-.9.56-.9,1.24v3.38c0,.58-.12,1.31.2,1.83.24.39.67.64,1.16.64Z"/>
        <path d="m934.75,324.95h2.61c.69,0,1.01-.39,1.16-.92.2-.72.07-1.7.07-2.31,0-.85.2-1.78-.14-2.59-.17-.42-.5-.7-1.08-.7-.2,0-.45-.02-.73-.04-.4-.03-.86-.05-1.3-.03-.36.02-.7.06-.99.17-.48.18-.82.51-.82,1.12v3.06c0,.52-.11,1.18.18,1.65.22.35.6.58,1.05.58Z"/>
        <path d="m949.11,328.64h2.61c.68,0,1.01-.39,1.16-.92.2-.72.07-1.7.07-2.31,0-.85.19-1.78-.14-2.59-.17-.42-.5-.7-1.08-.7-.2,0-.45-.02-.73-.04-.4-.03-.86-.05-1.3-.03-.36.02-.7.06-.99.17-.48.18-.82.51-.82,1.12v3.06c0,.52-.1,1.18.18,1.65.22.35.6.58,1.04.58Z"/>
        <path d="m963.94,331.94h2.61c.69,0,1.01-.39,1.16-.92.2-.72.07-1.7.07-2.3,0-.85.19-1.78-.15-2.59-.17-.42-.5-.7-1.08-.7-.2,0-.45-.02-.73-.04-.4-.03-.86-.05-1.3-.03-.35.02-.7.06-.99.17-.48.18-.82.51-.82,1.13v3.06c0,.52-.11,1.19.18,1.65.22.35.6.58,1.05.58Z"/>
        <path d="m977.89,335.56h2.61c.69,0,1.01-.39,1.16-.92.2-.72.07-1.7.07-2.3,0-.85.2-1.78-.14-2.59-.17-.42-.5-.7-1.08-.7-.2,0-.45-.02-.73-.04-.4-.03-.86-.05-1.3-.03-.36.02-.7.07-.99.17-.48.18-.82.51-.82,1.13v3.06c0,.52-.11,1.18.18,1.65.22.35.6.58,1.05.58Z"/>
        <path d="m729.48,285.08h3.23c.85,0,1.25-.49,1.44-1.14.25-.89.09-2.11.08-2.86,0-1.05.24-2.21-.18-3.21-.21-.52-.62-.87-1.34-.87-.24,0-.56-.02-.9-.04-.5-.03-1.07-.07-1.62-.04-.44.02-.87.08-1.22.21-.6.22-1.01.63-1.01,1.39v3.79c0,.65-.13,1.47.23,2.05.27.43.75.72,1.3.72Z"/>
        <path d="m262.98,195.42h3.92c1.03,0,1.52-.59,1.74-1.39.3-1.08.11-2.56.1-3.47,0-1.27.29-2.68-.22-3.9-.26-.62-.75-1.06-1.63-1.06-.3,0-.67-.03-1.09-.05-.6-.04-1.3-.08-1.96-.05-.53.03-1.05.1-1.48.26-.73.26-1.23.77-1.23,1.69v4.59c0,.78-.16,1.78.28,2.48.33.53.91.88,1.57.88Z"/>
        <path d="m228.43,189.9h3.92c1.03,0,1.52-.59,1.74-1.39.3-1.09.11-2.56.1-3.47,0-1.27.29-2.68-.22-3.9-.26-.62-.75-1.06-1.63-1.06-.3,0-.67-.03-1.09-.05-.61-.04-1.3-.08-1.96-.05-.53.03-1.05.1-1.48.26-.73.26-1.23.77-1.23,1.69v4.6c0,.78-.16,1.78.28,2.48.33.53.91.88,1.57.88Z"/>
      </g>
      <path d="m82.44,166.41c.81.07,1.49.13,2.09.17,1.22.09,2.11.14,3.13.17.79.02,1.66.04,2.83.06.94.02,1.84.05,2.72.09,1.1.05,2.2.12,3.37.21.63.05,1.27.1,1.96.16.11-.27.24-.59.38-.93.38-.91.84-2.03,1.26-3.2.44-1.22.83-2.49,1.03-3.64.09-.5.14-.99.14-1.43-.66,0-1.3.02-1.94.06-1.18.08-2.33.23-3.44.45-.89.18-1.75.4-2.58.65-1.12.35-1.96.63-2.64.88-.89.33-1.51.62-2.15.96-.31.17-.63.35-.98.56-.36.24-.73.5-1.11.76-.86.61-1.73,1.27-2.45,1.89-.69.6-1.23,1.18-1.47,1.64-.09.18-.14.34-.14.48Z"/>
      <path d="m121.25,157.76c-.67-.06-1.23-.09-1.72-.11-1.23-.05-2.47-.03-3.7.03-1.61.07-3.22.17-4.83.09-.92-.04-4.06-.04-5.23.16-.23.04-.38.09-.43.14-.12.29-.23.58-.35.87-.23.55-.46,1.1-.67,1.65-.29.72-.57,1.45-.83,2.19-.32.91-.59,1.84-.77,2.78-.11.56-.19,1.14-.19,1.71.3,0,.59,0,.88-.01,1.51-.05,3.01-.21,4.49-.5,2.14-.42,4.23-1.17,6.29-1.83,1.65-.53,3.3-1.1,4.89-1.8.64-.28,1.27-.58,1.87-.93.05-.29.09-.57.12-.86.06-.47.1-.94.13-1.42.02-.39.04-.78.04-1.19,0-.34,0-.63,0-.8,0-.09,0-.15,0-.16Z"/>
      <path d="m68.06,168.59c1.54-.17,3.15-.41,4.68-.69,1.82-.33,3.53-.7,4.86-1.08.8-.23,1.47-.45,1.95-.66.97-.43,1.78-1.3,2.57-2,.22-.19.44-.39.66-.59.41-.37.83-.74,1.22-1.1.54-.49,1.03-.93,1.39-1.26.39-.36.63-.58.63-.58-.73,0-1.68.18-2.81.51-.76.22-1.59.51-2.49.86-1.49.58-3.13,1.32-4.85,2.18-1.44.72-2.94,1.52-4.44,2.38-.38.22-.76.44-1.15.67-.36.21-.71.42-1.06.64-.26.16-.51.31-.77.47-.14.09-.28.17-.42.26Z"/>
      <path class="cls-5" d="m993.56,302.77c2.01.47,4.02.95,6.03,1.42,7.43,1.73,14.92,3.43,22.46,5.11,18.57,4.14,37.22,8.93,55.84,13.38,17.1,4.09,34.12,8.22,50.77,12.52,5.33,1.38,12.32,2.79,18.31,4.18,1.49.35,2.92.69,4.25,1.03.45-1.75,1.45-6.23,1.88-8.1,1.07-4.68,2.17-9.7,3.29-14.97,3.24-15.2,6.67-32.45,10.01-49.53,3.28-16.77,6.47-33.38,9.32-47.75,1.93-9.72,3.69-18.37,5.08-25.4,2.31-11.69,3.57-18.9,2.84-19.1-1.33-.32-2.6-.62-3.81-.92-4.86-1.21-8.79-2.3-12.33-3.3-2.63-.74-6.39-1.73-10.36-2.74-4.33-1.1-8.91-2.24-12.58-3.14-1.49-.36-2.83-.69-3.94-.95-.3-.07-.58-.14-.85-.2-1.42-.45-9.19,5.9-20.66,16.28-6.89,6.24-15.12,13.93-24.1,22.47-13.27,12.62-28.17,27.11-42.85,41.52-14.96,14.68-29.68,29.29-42.18,41.77-4.33,4.32-8.4,8.39-12.12,12.12-1.49,1.49-2.92,2.92-4.29,4.3Z"/>
      <path class="cls-8" d="m477.55,287.95c29.75,3.96,59.5,7.93,89.25,11.89,35.58,4.74,71.15,9.48,106.73,14.22,5.05.67,10.1,1.35,15.14,2.02,3.42-4.22,8.23-9.3,14.31-15.1,13.85-13.19,34.34-30.12,60.28-49.17,18.61-13.66,40.03-28.42,63.82-43.67,2.7-1.73,5.47-3.5,8.32-5.31,25.13-16.01,55.58-35,84.89-53.22,4.77-2.96,9.5-5.9,14.18-8.81,3.18-1.98,6.34-3.94,9.46-5.87,1.8-1.12,3.58-2.22,5.35-3.32,5.28-3.28,10.44-6.48,15.44-9.59,12.89-8.01,24.69-15.35,34.62-21.58,16.46-10.33,27.83-17.6,30.62-19.8.2-.16.36-.29.47-.39,1.97-1.86,6.78-11.08,12.17-22.51,4.74-10.06,9.91-21.83,13.96-31.8,2.07-5.09,3.84-9.71,5.12-13.4,1.7-4.89,2.51-8.13,1.96-8.62-.75-.66-2.54-1.39-4.78-2.04-2.94-.85-6.66-1.57-9.78-1.8-3.15-.23-5.71.03-6.25,1.12-.19.38-.97,1.58-2.21,3.4-6.07,8.91-23.17,32.65-36.11,47.85-5.23,6.14-9.78,10.88-12.66,12.7-1.42.9-10.38,4.99-24.99,11.47-19.21,8.53-48.21,21.19-82.67,36.16-19.32,8.39-40.36,17.51-62.37,27.02-43.16,18.66-90.02,38.86-134.87,58.17-37.51,16.15-73.6,31.67-104.96,45.13-5.91,2.54-11.66,5.01-17.22,7.4-4.4,1.89-8.68,3.73-12.83,5.51-8.88,3.81-17.16,7.37-24.72,10.61-8.76,3.76-16.57,7.11-23.25,9.98-9.06,3.89-16.06,6.89-20.57,8.83-2.72,1.17-4.54,1.95-5.35,2.3-.33.14-.5.21-.5.21Z"/>
      <path class="cls-8" d="m1091.25,335.15c-1.2.58-1.27,1.36-.53,2.26,1.79,2.16,8.29,5.05,15.24,7.71,5.83,2.24,11.97,4.32,15.91,5.71,4.94,1.74,11.42,3.85,17.71,5.7,4.88,1.44,9.64,2.72,13.48,3.55,4.06.88,7.1,1.26,8.17.8,1.02-.66,2.06-1.32,3.11-1.99,2.78-1.78,5.65-3.59,8.59-5.44,6.25-3.92,12.84-8,19.66-12.16,8.47-5.18,17.27-10.5,26.2-15.86,14.76-8.86,29.84-17.82,44.23-26.42,11.04-6.59,21.69-12.97,31.47-18.9,7.82-4.75,15.08-9.21,21.56-13.29-1.55-.26-3.75-.6-6.05-.94-2.18-.32-4.44-.64-6.3-.9-2.39-.34-4.11-.57-4.11-.57,0,0-.67-.09-2.11-.34-1.72-.3-4.54-.82-8.65-1.7-1.71-.36-3.64-.79-5.81-1.28-8.95,2.95-18.56,6.31-28.63,9.96-12.6,4.56-25.91,9.58-39.51,14.83-17.72,6.84-35.93,14.06-53.71,21.19-10.76,4.31-21.35,8.58-31.59,12.7-8.24,3.32-16.24,6.54-23.9,9.61-3.61,1.45-7.14,2.86-10.58,4.23-1.3.52-2.59,1.03-3.86,1.54Z"/>
      <g>
        <g>
          <path class="cls-4" d="m732.86,240.48c.04-41.15-134.27-54.19-134.27-54.19l-7.58,37.28c26.24,9.82,82.96,26.76,141.86,16.91Z"/>
          <path class="cls-7" d="m591.01,223.58l-5.35,26.3c121.55,36.94,142.71,15.84,146.84-5.67.24-1.27.36-2.51.36-3.73-58.9,9.86-115.61-7.08-141.86-16.91Z"/>
        </g>
        <g>
          <path class="cls-2" d="m614.88,221.81c-2.83,17.33-14.5,29.85-26.05,27.96-11.55-1.89-18.62-17.47-15.78-34.8,2.83-17.32,14.5-29.84,26.05-27.95,11.55,1.89,18.62,17.47,15.78,34.8Z"/>
          <path class="cls-9" d="m588.73,250.38c-11.87-1.94-19.18-17.87-16.3-35.52,2.89-17.64,14.89-30.41,26.77-28.47,11.87,1.94,19.18,17.87,16.3,35.51-2.89,17.64-14.89,30.41-26.77,28.47Zm10.27-62.75c-11.19-1.83-22.56,10.48-25.33,27.44-2.77,16.96,4.08,32.25,15.27,34.08,11.2,1.83,22.56-10.48,25.33-27.44,2.78-16.96-4.08-32.25-15.27-34.08Z"/>
        </g>
        <path class="cls-6" d="m614.88,221.81c-2.04,12.49-10.45,21.51-18.77,20.14-8.32-1.36-13.42-12.59-11.37-25.08,2.04-12.48,10.44-21.5,18.77-20.14,8.32,1.36,13.42,12.59,11.37,25.07Z"/>
      </g>
      <g>
        <g>
          <path class="cls-4" d="m805.23,190.25c.04-35.04-114.34-46.14-114.34-46.14l-6.45,31.75c22.34,8.36,70.64,22.79,120.79,14.4Z"/>
          <path class="cls-7" d="m684.44,175.86l-4.55,22.39c103.5,31.45,121.52,13.49,125.04-4.82.21-1.08.3-2.14.31-3.17-50.15,8.39-98.45-6.03-120.79-14.4Z"/>
        </g>
        <g>
          <path class="cls-2" d="m704.77,174.35c-2.41,14.75-12.35,25.41-22.18,23.8-9.83-1.61-15.85-14.88-13.44-29.63,2.41-14.75,12.35-25.41,22.18-23.8,9.84,1.61,15.85,14.88,13.44,29.63Z"/>
          <path class="cls-9" d="m682.5,198.68c-10.11-1.65-16.34-15.22-13.88-30.24,2.46-15.02,12.68-25.89,22.79-24.24,10.11,1.65,16.33,15.22,13.88,30.24-2.46,15.02-12.68,25.9-22.79,24.24Zm8.74-53.43c-9.53-1.56-19.21,8.92-21.57,23.36-2.36,14.44,3.47,27.46,13,29.02,9.53,1.56,19.21-8.92,21.57-23.37,2.36-14.44-3.47-27.46-13-29.02Z"/>
        </g>
        <path class="cls-6" d="m704.77,174.35c-1.74,10.63-8.9,18.31-15.98,17.15-7.09-1.16-11.42-10.72-9.68-21.35,1.74-10.63,8.89-18.31,15.98-17.15,7.09,1.16,11.42,10.72,9.68,21.35Z"/>
      </g>
    </g>
  </g>
</svg>