<?xml version="1.0" encoding="UTF-8"?>
<svg id="Layer_2" data-name="Layer 2" xmlns="http://www.w3.org/2000/svg" viewBox="0 0 1017.44 346.31">
  <defs>
    <style>
      .cls-1 {
        fill: #f5f5f3;
      }

      .cls-2 {
        fill: #595f5d;
      }

      .cls-3 {
        fill: #c9d1d3;
      }

      .cls-4 {
        fill: #f2f1ef;
      }

      .cls-5 {
        fill: #008ea4;
      }

      .cls-6 {
        fill: #50534c;
      }

      .cls-7 {
        fill: #bcc2c2;
      }

      .cls-8 {
        fill: #dee6e9;
      }
    </style>
  </defs>
    <g>
      <polygon class="cls-5" points="356.67 158.21 372.67 142.88 442.67 252.88 386 311.55 356.67 158.21"/>
      <g>
        <path class="cls-3" d="m457.33,292.21c-28.59,20.53-49.02,37.28-63.44,50.29,37.73,8.42,96.01,2.46,128.78-13.62,36.67-18,150.67-92,214-138,63.33-46,85.33-62.67,96.67-74s19.33-24.67,19.33-24.67c10.8-22.68,17.77-38.8,21.23-50.21-71.76,7.95-173.36,75.02-219.23,108.21-50.67,36.67-119.33,86-197.33,142Z"/>
        <path class="cls-1" d="m867.33,16.21c-15.33-4-22.67-5.33-22.67-5.33,0,0-3.33-12.67-39.33-10.67s-50,8.67-82.67,28.67c-32.67,20-91.33,71.33-146.67,114-55.33,42.67-230.67,182.67-194.67,196,3.83,1.42,8.06,2.62,12.56,3.62,14.42-13,34.85-29.76,63.44-50.29,78-56,146.67-105.33,197.33-142,45.87-33.2,147.47-100.26,219.23-108.21,5.08-16.78,2.56-23.41-6.56-25.79Z"/>
      </g>
      <path class="cls-8" d="m604,191.55c-155.22,18.02-416.67,48-473.33,52.67-56.03,4.61-67.41,6.3-86.03,6.65l-8.64,16.68c16-.67,484.67-15.33,484.67-15.33,44.67-9.33,79.33-42,85.33-51.33s-2-9.33-2-9.33Z"/>
      <g>
        <path class="cls-4" d="m536.18,216.35l-15.43-20.14c-42.82,29.14-58.63,48.74-50.66,68.24,33-14.35,54.26-34.27,66.09-48.11Z"/>
        <path class="cls-7" d="m536.18,216.35c-11.83,13.84-33.09,33.75-66.09,48.11.96,2.36,2.25,4.72,3.91,7.09,15.33,22,84.5-26.08,84.5-26.08l-22.31-29.11Z"/>
      </g>
      <path class="cls-5" d="m44,250.88c-17.33-12-37.33-50.67-37.33-50.67l-6.67,5.33s23.67,62.33,36,62l8.64-16.68c-.21,0-.42,0-.64.01Z"/>
      <path class="cls-8" d="m389.33,300.88c-98,4-191.33,5.33-191.33,5.33l-6.67,14s180.91,18.1,191.33,7.33c20-20.67,6.67-26.67,6.67-26.67Z"/>
      <path class="cls-8" d="m997.33,266.88s-247.33-58.67-278-73.33l-86,62.67s260.67,18,315.33,22.67c54.67,4.67,63.33-4.67,68-10l-19.33-2Z"/>
      <path class="cls-5" d="m1002.67,222.21c-.67-2.67-8.67,4-8.67,4l3.33,40.67,19.33,2c4.67-5.33-13.33-44-14-46.67Z"/>
      <path class="cls-2" d="m569.33,223.21c0,17.49-14.36,31.67-32.08,31.67s-32.08-14.18-32.08-31.67,14.36-31.67,32.08-31.67,32.08,14.18,32.08,31.67Z"/>
      <path class="cls-6" d="m566,217.21c0,14.17-11.64,25.67-26,25.67s-26-11.49-26-25.67,11.64-25.67,26-25.67,26,11.49,26,25.67Z"/>
      <polygon points="769.67 23.55 782.67 17.55 782.33 30.55 769 32.21 769.67 23.55"/>
      <polygon points="786 16.21 786.33 29.55 800.67 20.21 798.67 12.55 786 16.21"/>
      <path d="m803,11.55l1.67,7c13.67-3.33,28.33-5.67,28.33-5.67l-3-4c-14.67-.67-27,2.67-27,2.67Z"/>
      <path d="m414.5,301.88c0,.74-.6,1.33-1.33,1.33h0c-.74,0-1.33-.6-1.33-1.33v-7c0-.74.6-1.33,1.33-1.33h0c.74,0,1.33.6,1.33,1.33v7Z"/>
      <path d="m418.5,298.38c0,.74-.6,1.33-1.33,1.33h0c-.74,0-1.33-.6-1.33-1.33v-7c0-.74.6-1.33,1.33-1.33h0c.74,0,1.33.6,1.33,1.33v7Z"/>
      <path d="m423.16,294.55c0,.74-.6,1.33-1.33,1.33h0c-.74,0-1.33-.6-1.33-1.33v-7c0-.74.6-1.33,1.33-1.33h0c.74,0,1.33.6,1.33,1.33v7Z"/>
      <path d="m428,290.72c0,.74-.6,1.33-1.33,1.33h0c-.74,0-1.33-.6-1.33-1.33v-7c0-.74.6-1.33,1.33-1.33h0c.74,0,1.33.6,1.33,1.33v7Z"/>
      <path d="m433.16,286.55c0,.74-.6,1.33-1.33,1.33h0c-.74,0-1.33-.6-1.33-1.33v-7c0-.74.6-1.33,1.33-1.33h0c.74,0,1.33.6,1.33,1.33v7Z"/>
      <path d="m438.16,282.22c0,.74-.6,1.33-1.33,1.33h0c-.74,0-1.33-.6-1.33-1.33v-7c0-.74.6-1.33,1.33-1.33h0c.74,0,1.33.6,1.33,1.33v7Z"/>
      <path d="m443.83,278.22c0,.74-.6,1.33-1.33,1.33h0c-.74,0-1.33-.6-1.33-1.33v-7c0-.74.6-1.33,1.33-1.33h0c.74,0,1.33.6,1.33,1.33v7Z"/>
      <path d="m448.66,274.22c0,.74-.6,1.33-1.33,1.33h0c-.74,0-1.33-.6-1.33-1.33v-7c0-.74.6-1.33,1.33-1.33h0c.74,0,1.33.6,1.33,1.33v7Z"/>
      <path d="m562.17,188.05c0,.74-.6,1.33-1.33,1.33h0c-.74,0-1.33-.6-1.33-1.33v-7c0-.74.6-1.33,1.33-1.33h0c.74,0,1.33.6,1.33,1.33v7Z"/>
      <path d="m566.17,184.55c0,.74-.6,1.33-1.33,1.33h0c-.74,0-1.33-.6-1.33-1.33v-7c0-.74.6-1.33,1.33-1.33h0c.74,0,1.33.6,1.33,1.33v7Z"/>
      <path d="m570.83,180.71c0,.74-.6,1.33-1.33,1.33h0c-.74,0-1.33-.6-1.33-1.33v-7c0-.74.6-1.33,1.33-1.33h0c.74,0,1.33.6,1.33,1.33v7Z"/>
      <path d="m575.67,176.88c0,.74-.6,1.33-1.33,1.33h0c-.74,0-1.33-.6-1.33-1.33v-7c0-.74.6-1.33,1.33-1.33h0c.74,0,1.33.6,1.33,1.33v7Z"/>
      <path d="m580.83,172.71c0,.74-.6,1.33-1.33,1.33h0c-.74,0-1.33-.6-1.33-1.33v-7c0-.74.6-1.33,1.33-1.33h0c.74,0,1.33.6,1.33,1.33v7Z"/>
      <path d="m585.83,168.38c0,.74-.6,1.33-1.33,1.33h0c-.74,0-1.33-.6-1.33-1.33v-7c0-.74.6-1.33,1.33-1.33h0c.74,0,1.33.6,1.33,1.33v7Z"/>
      <path d="m591.5,164.38c0,.74-.6,1.33-1.33,1.33h0c-.74,0-1.33-.6-1.33-1.33v-7c0-.74.6-1.33,1.33-1.33h0c.74,0,1.33.6,1.33,1.33v7Z"/>
      <path d="m596.33,160.38c0,.74-.6,1.33-1.33,1.33h0c-.74,0-1.33-.6-1.33-1.33v-7c0-.74.6-1.33,1.33-1.33h0c.74,0,1.33.6,1.33,1.33v7Z"/>
      <path d="m609.58,150.38c0,.74-.6,1.33-1.33,1.33h0c-.74,0-1.33-.6-1.33-1.33v-7c0-.74.6-1.33,1.33-1.33h0c.74,0,1.33.6,1.33,1.33v7Z"/>
      <path d="m616.58,145.38c0,.74-.6,1.33-1.33,1.33h0c-.74,0-1.33-.6-1.33-1.33v-7c0-.74.6-1.33,1.33-1.33h0c.74,0,1.33.6,1.33,1.33v7Z"/>
      <path d="m624.08,139.13c0,.74-.6,1.33-1.33,1.33h0c-.74,0-1.33-.6-1.33-1.33v-7c0-.74.6-1.33,1.33-1.33h0c.74,0,1.33.6,1.33,1.33v7Z"/>
      <path d="m631.08,133.63c0,.74-.6,1.33-1.33,1.33h0c-.74,0-1.33-.6-1.33-1.33v-7c0-.74.6-1.33,1.33-1.33h0c.74,0,1.33.6,1.33,1.33v7Z"/>
      <path d="m639.33,128.13c0,.74-.6,1.33-1.33,1.33h0c-.74,0-1.33-.6-1.33-1.33v-7c0-.74.6-1.33,1.33-1.33h0c.74,0,1.33.6,1.33,1.33v7Z"/>
      <path d="m646.83,122.88c0,.74-.6,1.33-1.33,1.33h0c-.74,0-1.33-.6-1.33-1.33v-7c0-.74.6-1.33,1.33-1.33h0c.74,0,1.33.6,1.33,1.33v7Z"/>
      <path d="m654.33,117.13c0,.74-.6,1.33-1.33,1.33h0c-.74,0-1.33-.6-1.33-1.33v-7c0-.74.6-1.33,1.33-1.33h0c.74,0,1.33.6,1.33,1.33v7Z"/>
      <path d="m662.58,111.13c0,.74-.6,1.33-1.33,1.33h0c-.74,0-1.33-.6-1.33-1.33v-7c0-.74.6-1.33,1.33-1.33h0c.74,0,1.33.6,1.33,1.33v7Z"/>
      <path d="m669.58,105.63c0,.74-.6,1.33-1.33,1.33h0c-.74,0-1.33-.6-1.33-1.33v-7c0-.74.6-1.33,1.33-1.33h0c.74,0,1.33.6,1.33,1.33v7Z"/>
      <path d="m677.83,100.13c0,.74-.6,1.33-1.33,1.33h0c-.74,0-1.33-.6-1.33-1.33v-7c0-.74.6-1.33,1.33-1.33h0c.74,0,1.33.6,1.33,1.33v7Z"/>
      <path d="m684.83,95.13c0,.74-.6,1.33-1.33,1.33h0c-.74,0-1.33-.6-1.33-1.33v-7c0-.74.6-1.33,1.33-1.33h0c.74,0,1.33.6,1.33,1.33v7Z"/>
      <path d="m692.58,88.88c0,.74-.6,1.33-1.33,1.33h0c-.74,0-1.33-.6-1.33-1.33v-7c0-.74.6-1.33,1.33-1.33h0c.74,0,1.33.6,1.33,1.33v7Z"/>
      <path d="m699.83,83.13c0,.74-.6,1.33-1.33,1.33h0c-.74,0-1.33-.6-1.33-1.33v-7c0-.74.6-1.33,1.33-1.33h0c.74,0,1.33.6,1.33,1.33v7Z"/>
      <path d="m709.08,77.38c0,.74-.6,1.33-1.33,1.33h0c-.74,0-1.33-.6-1.33-1.33v-7c0-.74.6-1.33,1.33-1.33h0c.74,0,1.33.6,1.33,1.33v7Z"/>
      <path d="m718.33,73.13c0,.74-.6,1.33-1.33,1.33h0c-.74,0-1.33-.6-1.33-1.33v-7c0-.74.6-1.33,1.33-1.33h0c.74,0,1.33.6,1.33,1.33v7Z"/>
      <g>
        <path class="cls-4" d="m803.2,203.16c-45.39,35.54-58.2,57.05-41.96,77.84,15.61-9.71,37.26-25.82,64.41-52.29l-22.44-25.55Z"/>
        <path class="cls-7" d="m761.24,281c.12.15.22.3.34.44,16.77,20.93,82.58-31.66,82.58-31.66l-18.51-21.07c-27.15,26.47-48.79,42.58-64.41,52.29Z"/>
      </g>
      <ellipse class="cls-2" cx="821.46" cy="229" rx="32.08" ry="31.67" transform="translate(-13.42 55.18) rotate(-3.82)"/>
      <path class="cls-6" d="m849.75,221.1c.95,14.14-9.9,26.39-24.23,27.34-14.33.96-26.71-9.73-27.65-23.88-.95-14.14,9.9-26.39,24.23-27.34,14.33-.96,26.71,9.73,27.65,23.88Z"/>
    </g>
</svg>