<?xml version="1.0" encoding="UTF-8"?>
<svg id="Layer_2" data-name="Layer 2" xmlns="http://www.w3.org/2000/svg" viewBox="0 0 1394.45 913.8">
  <defs>
    <style>
      .cls-1 {
        fill: #5baebc;
      }
    </style>
  </defs>
  <g id="_Ñëîé_1" data-name="Ñëîé 1">
    <path class="cls-1" d="m1380.9,210.53c.25-.34.5-.67.74-1.01.11-.15.22-.3.33-.46.32-.45.63-.91.94-1.37,0,0,0-.01.01-.02.99-1.48,1.93-3.02,2.82-4.64.1-.17.19-.35.28-.52.14-.27.29-.53.43-.8,7.42-14.1,9.39-29.33,7.07-34.32,0-.01-.01-.02-.02-.03-.08-.23-.16-.44-.24-.59-.97-1.74-2.48-3.39-4.42-4.93-2.07-1.7-4.48-3.12-7.07-4.3-.91-.44-1.5-.65-1.5-.65,0,0,0,0,0,0-1.36-.56-2.75-1.06-4.16-1.51-11.19-3.76-26-5.28-40.13-2.92-1.26.21-2.48.44-3.68.67,0,0,0,0,0,0-.32-1.02-.71-1.98-1.14-2.89-.05-.1-.09-.2-.14-.31-.03-.06-.06-.11-.09-.17-.07-.14-.14-.28-.22-.42-.04-.07-.08-.14-.12-.22-.94-1.73-2.06-3.26-3.32-4.62-5.19-5.82-14.09-11.11-24.56-8.02,0,0,0,0,0,0-10.17,2.58-37.91,19.51-48.21,31.11-.17-.74-.34-1.48-.53-2.24-4.29-17.23-35.73-137.25-41.45-151.06-5.71-13.81-14.24-13.03-14.24-13.03h0c-1.74-.44-3.6-.68-5.33-.74l-.02-.09c-.04-.26-.29-.44-.56-.39-.23.04-.39.24-.39.47-3.11,0-5.63.54-6.05,1.32-1.36,2.58,22.83,167.65,21.95,175.29-.27,2.38-1.26,9.36-2.48,17.86L0,793.8l120,64,755.32-434.58c35.85,8.46,82.38,18.81,83.18,17.7-5.3,7.47-8.58,13.09-9.13,15.33-1.66,6.75,3,7.25,3,7.25,0,0,.05.06.18.16-.06.01-.11.02-.11.02,0,0,.1.05.33.13.87.57,3.38,1.76,9.31,1.94.53.07,1.09.14,1.68.2,2.09.23,4.98.08,8.29-.33-7.18,14.86-40.41,84.35-38.96,84.69,0,0,.91,1.38,2.61.94,1.71-.44,9.79-5.66,19.16-14.93,8.09-7.99,40.11-62.07,48.85-77.44.07-.02.14-.04.21-.05,0,0,.06-.01.16-.04,1.47-.39,3.43-.92,5.74-1.56,11.38-3.12,36.23-10.08,47.65-14.33,12.42-4.25,30.43-8.55,110.02-66.15,1.53-1.11,3.06-2.22,4.6-3.33-5.73,13.74-17.46,41.64-25.92,60.47l-801.17,466.9,199,13,568.16-417.11c-35.54,62.1-92.83,160.99-92.83,160.99,0,0,9.71-1.62,20.51-8.44.02.03.04.06.08.08.07.04.15.05.22.02.05-.02.09-.05.11-.1.02-.04.1-.16.21-.34,13.09-6.63,26.08-24.48,44.14-54.36,18.23-30.17,75.5-115.38,92.13-144.72l28.71-20.84c1.94-.68,3.3-1.19,3.3-1.19,0,0,8.25,7.3,21.75,4.68.05,0,.09-.02.14-.03.81-.14,1.62-.3,2.44-.5.38-.09.78-.2,1.19-.31,11.95-2.94,22.43-8.41,28.55-12.74,0,0,.02-.01.03-.02,4.99-3.17,9.68-6.85,13.41-11,.01-.01.03-.02.04-.03,13.32-10.95,9.36-31.8-1.96-42.79-2.49-2.42-5.75-4.24-9.33-5.41-1.12-.49-2.24-.89-3.36-1.16-14.07-3.4-29.16,5.1-43.99,19.84l-.02.03c12.2-21.51,22.25-39.66,23.18-43.01,1.48-5.34,1.95-10.65,1.17-13.7,53.92-40.63,100.55-77.1,112.52-86.52,11.08-8.72,19.63-15.64,26.18-24.29.03-.04.06-.08.09-.11.05-.06.09-.12.14-.18Zm-399.01,178.95c-13.5-.22-30.58-.43-47.65-.48l44.95-26.11c.87,8.88,1.85,18.44,2.7,26.59Zm217.01-149.52c-72.49,54.92-165.29,125.72-188.16,144.46h.02s-6.84-20.25-11.5-33.19l200.38-116.41c-.47,3.21-.76,5.16-.76,5.16l.03-.02Z"/>
  </g>
</svg>