<?xml version="1.0" encoding="UTF-8"?>
<svg id="Layer_2" data-name="Layer 2" xmlns="http://www.w3.org/2000/svg" viewBox="0 0 3000 1103.39">
  <defs>
    <style>
      .cls-1 {
        fill: #fff;
      }

      .cls-2 {
        fill: #b5e1e5;
      }

      .cls-3 {
        fill: #dcf5f9;
      }

      .cls-4 {
        fill: #91cddb;
      }
    </style>
  </defs>
  <g id="_Ñëîé_1" data-name="Ñëîé 1">
    <g>
      <path class="cls-4" d="m81,158.39S312,11.39,562,60.39s380,365,380,365c0,0,191-60,306-22s137,154,137,154c0,0,47-111,353-154s442,112,442,112c0,0,13-47,70-65s101,13,101,13c0,0,24-291,275-406s374-21.64,374-21.64v820.44l-1816.65,120.77L0,891.39,81,158.39Z"/>
      <path class="cls-2" d="m0,113.83s99-19.43,202,25.57,142,164,142,164c0,0,55-18,109,0s65,92,65,92c0,0,119-98,330-52s209,273,209,273c0,0,61-33,142,0s77,131,77,131c0,0,41-52,164-45s182,147.7,182,147.7l-236,154.52-1065-121.21L0,742.89V113.83Z"/>
      <path class="cls-2" d="m1372.83,889.35s38.17-86.73,163.17-114.85,240,42.55,240,42.55c0,0,72-184.64,288-228.71,216-44.07,386,23.56,439,66.11,0,0,71-397.58,497-402.05v769.23l-1651-.17,23.83-132.1Z"/>
      <path class="cls-3" d="m0,469.46s75.73-91.58,268.81-86.89c193.08,4.68,265.49,217.65,265.49,217.65,0,0,29.13-21.06,93.21,0,64.08,21.06,69.08,93.61,69.08,93.61,0,0,141.48-36.67,267.98,24.18,126.5,60.85,139.82,191.13,139.82,191.13,0,0,83.22-21.06,138.15,17.16,54.93,38.23,54.93,96.73,54.93,96.73,0,0,55.76-16.38,118.18-21.84,62.42-5.46,188.62,47.59,188.36,102.2H0V469.46Z"/>
      <path class="cls-1" d="m3000,567.63s-223.25-117.79-559.41.4c-336.16,118.19-408.57,350.15-408.57,350.15,0,0-36.2-31.75-106.02-21.17-69.82,10.58-96.54,69.68-96.54,69.68,0,0-54.77-132.03-315.48-120.83-246.52,10.58-318.93,209.03-318.93,209.03,0,0-22.34-40.45-99.99-28.22-89.64,14.11-98.07,76.73-98.07,76.73h2003v-535.77Z"/>
      <path class="cls-1" d="m0,865.23s110-89.84,243-83.84,200,120,223,164c0,0,48-30,105-10s67,72,67,72c0,0,28-5,68,6s54,61,54,61c0,0,41-13,88-13s80.61,42,80.61,42H0v-238.16Z"/>
    </g>
  </g>
</svg>