<?xml version="1.0" encoding="UTF-8"?>
<svg id="Layer_2" data-name="Layer 2" xmlns="http://www.w3.org/2000/svg" xmlns:xlink="http://www.w3.org/1999/xlink" viewBox="0 0 1127.92 1208.6">
  <defs>
    <style>
      .cls-1 {
        fill: url(#_Áåçûìÿííûé_ãðàäèåíò_2-5);
      }

      .cls-2 {
        fill: url(#_Áåçûìÿííûé_ãðàäèåíò_20);
      }

      .cls-3 {
        fill: #b6c5c6;
      }

      .cls-4 {
        fill: url(#_Áåçûìÿííûé_ãðàäèåíò_5-5);
      }

      .cls-5 {
        fill: url(#_Áåçûìÿííûé_ãðàäèåíò_5-4);
      }

      .cls-6 {
        fill: url(#_Áåçûìÿííûé_ãðàäèåíò_2-4);
      }

      .cls-7 {
        fill: url(#_Áåçûìÿííûé_ãðàäèåíò_2-6);
      }

      .cls-8 {
        fill: url(#_Áåçûìÿííûé_ãðàäèåíò_2-8);
      }

      .cls-9 {
        fill: url(#_Áåçûìÿííûé_ãðàäèåíò_26);
      }

      .cls-10 {
        fill: url(#_Áåçûìÿííûé_ãðàäèåíò_2-2);
      }

      .cls-11 {
        fill: url(#_Áåçûìÿííûé_ãðàäèåíò_16);
      }

      .cls-12 {
        fill: #4e5354;
      }

      .cls-13 {
        fill: url(#_Áåçûìÿííûé_ãðàäèåíò_84-2);
      }

      .cls-14 {
        fill: #33393a;
      }

      .cls-15 {
        fill: #869c9e;
      }

      .cls-16 {
        fill: url(#_Áåçûìÿííûé_ãðàäèåíò_5-3);
      }

      .cls-17 {
        fill: url(#_Áåçûìÿííûé_ãðàäèåíò_2);
      }

      .cls-18 {
        fill: url(#_Áåçûìÿííûé_ãðàäèåíò_2-3);
      }

      .cls-19 {
        fill: url(#_Áåçûìÿííûé_ãðàäèåíò_5-6);
      }

      .cls-20 {
        fill: url(#_Áåçûìÿííûé_ãðàäèåíò_5);
      }

      .cls-21 {
        fill: #acafaf;
      }

      .cls-22 {
        fill: url(#_Áåçûìÿííûé_ãðàäèåíò_5-7);
      }

      .cls-23 {
        fill: url(#_Áåçûìÿííûé_ãðàäèåíò_5-8);
      }

      .cls-24 {
        fill: url(#_Áåçûìÿííûé_ãðàäèåíò_5-9);
      }

      .cls-25 {
        fill: url(#_Áåçûìÿííûé_ãðàäèåíò_84);
      }

      .cls-26 {
        fill: url(#_Áåçûìÿííûé_ãðàäèåíò_5-2);
      }

      .cls-27 {
        fill: url(#_Áåçûìÿííûé_ãðàäèåíò_5-10);
      }

      .cls-28 {
        fill: #21597c;
      }

      .cls-29 {
        fill: url(#_Áåçûìÿííûé_ãðàäèåíò_2-7);
      }

      .cls-30 {
        fill: #4d5456;
      }
    </style>
    <linearGradient id="_Áåçûìÿííûé_ãðàäèåíò_2" data-name="Áåçûìÿííûé ãðàäèåíò 2" x1="-294.43" y1="-207.93" x2="-195.84" y2="-207.93" gradientTransform="translate(633.02 469.86) rotate(165.13) scale(1 -1)" gradientUnits="userSpaceOnUse">
      <stop offset=".2" stop-color="#eaefef"/>
      <stop offset=".99" stop-color="#ced7d8"/>
    </linearGradient>
    <linearGradient id="_Áåçûìÿííûé_ãðàäèåíò_2-2" data-name="Áåçûìÿííûé ãðàäèåíò 2" x1="-316.76" y1="-66.27" x2="-322.02" y2="-28.46" xlink:href="#_Áåçûìÿííûé_ãðàäèåíò_2"/>
    <linearGradient id="_Áåçûìÿííûé_ãðàäèåíò_5" data-name="Áåçûìÿííûé ãðàäèåíò 5" x1="333.47" y1="89.67" x2="401.66" y2="89.67" gradientTransform="translate(633.02 469.86) rotate(165.13) scale(1 -1)" gradientUnits="userSpaceOnUse">
      <stop offset="0" stop-color="#f7f9f9"/>
      <stop offset=".92" stop-color="#eaefef"/>
    </linearGradient>
    <linearGradient id="_Áåçûìÿííûé_ãðàäèåíò_5-2" data-name="Áåçûìÿííûé ãðàäèåíò 5" x1="16.36" y1="54.41" x2="-21.69" y2="212.34" xlink:href="#_Áåçûìÿííûé_ãðàäèåíò_5"/>
    <linearGradient id="_Áåçûìÿííûé_ãðàäèåíò_16" data-name="Áåçûìÿííûé ãðàäèåíò 16" x1="497.9" y1="66.74" x2="526.61" y2="177.29" gradientTransform="translate(633.02 469.86) rotate(165.13) scale(1 -1)" gradientUnits="userSpaceOnUse">
      <stop offset="0" stop-color="#5795c4"/>
      <stop offset=".56" stop-color="#427aad"/>
      <stop offset=".99" stop-color="#21597c"/>
    </linearGradient>
    <linearGradient id="_Áåçûìÿííûé_ãðàäèåíò_26" data-name="Áåçûìÿííûé ãðàäèåíò 26" x1="56.83" y1="73.4" x2="23.45" y2="192.93" gradientTransform="translate(633.02 469.86) rotate(165.13) scale(1 -1)" gradientUnits="userSpaceOnUse">
      <stop offset=".06" stop-color="#fff"/>
      <stop offset=".75" stop-color="#f7f9f9"/>
    </linearGradient>
    <linearGradient id="_Áåçûìÿííûé_ãðàäèåíò_2-3" data-name="Áåçûìÿííûé ãðàäèåíò 2" x1="331.13" y1="80.26" x2="351.87" y2="80.26" xlink:href="#_Áåçûìÿííûé_ãðàäèåíò_2"/>
    <linearGradient id="_Áåçûìÿííûé_ãðàäèåíò_20" data-name="Áåçûìÿííûé ãðàäèåíò 20" x1="518.54" y1="53.9" x2="476.55" y2="210.03" gradientTransform="translate(633.02 469.86) rotate(165.13) scale(1 -1)" gradientUnits="userSpaceOnUse">
      <stop offset=".1" stop-color="#85bbdd"/>
      <stop offset=".99" stop-color="#5795c4"/>
    </linearGradient>
    <linearGradient id="_Áåçûìÿííûé_ãðàäèåíò_2-4" data-name="Áåçûìÿííûé ãðàäèåíò 2" x1="-4.85" y1="137.98" x2="-22.08" y2="206.89" xlink:href="#_Áåçûìÿííûé_ãðàäèåíò_2"/>
    <linearGradient id="_Áåçûìÿííûé_ãðàäèåíò_2-5" data-name="Áåçûìÿííûé ãðàäèåíò 2" x1="-13.59" y1="345.05" x2="19.43" y2="339.31" xlink:href="#_Áåçûìÿííûé_ãðàäèåíò_2"/>
    <linearGradient id="_Áåçûìÿííûé_ãðàäèåíò_2-6" data-name="Áåçûìÿííûé ãðàäèåíò 2" x1="201.23" y1="379.79" x2="143.8" y2="450.14" xlink:href="#_Áåçûìÿííûé_ãðàäèåíò_2"/>
    <linearGradient id="_Áåçûìÿííûé_ãðàäèåíò_5-3" data-name="Áåçûìÿííûé ãðàäèåíò 5" x1="-120.25" y1="406.71" x2="521.07" y2="406.71" xlink:href="#_Áåçûìÿííûé_ãðàäèåíò_5"/>
    <linearGradient id="_Áåçûìÿííûé_ãðàäèåíò_2-7" data-name="Áåçûìÿííûé ãðàäèåíò 2" x1="-62.27" y1="294.87" x2="-65.86" y2="375.27" xlink:href="#_Áåçûìÿííûé_ãðàäèåíò_2"/>
    <linearGradient id="_Áåçûìÿííûé_ãðàäèåíò_5-4" data-name="Áåçûìÿííûé ãðàäèåíò 5" x1="-287.29" y1="-200.27" x2="-104.4" y2="-200.27" xlink:href="#_Áåçûìÿííûé_ãðàäèåíò_5"/>
    <linearGradient id="_Áåçûìÿííûé_ãðàäèåíò_5-5" data-name="Áåçûìÿííûé ãðàäèåíò 5" x1="-378.92" y1="24.72" x2="-387.22" y2="59.18" xlink:href="#_Áåçûìÿííûé_ãðàäèåíò_5"/>
    <linearGradient id="_Áåçûìÿííûé_ãðàäèåíò_5-6" data-name="Áåçûìÿííûé ãðàäèåíò 5" x1="-469.53" y1="41.61" x2="-477.93" y2="76.51" gradientTransform="translate(572.24 518.56) rotate(157.87) scale(1 -1)" xlink:href="#_Áåçûìÿííûé_ãðàäèåíò_5"/>
    <linearGradient id="_Áåçûìÿííûé_ãðàäèåíò_5-7" data-name="Áåçûìÿííûé ãðàäèåíò 5" x1="-436.67" y1="-20.79" x2="-448.46" y2="10.26" xlink:href="#_Áåçûìÿííûé_ãðàäèåíò_5"/>
    <linearGradient id="_Áåçûìÿííûé_ãðàäèåíò_5-8" data-name="Áåçûìÿííûé ãðàäèåíò 5" x1="-34.11" y1="282.88" x2="-41.64" y2="341.38" xlink:href="#_Áåçûìÿííûé_ãðàäèåíò_5"/>
    <linearGradient id="_Áåçûìÿííûé_ãðàäèåíò_5-9" data-name="Áåçûìÿííûé ãðàäèåíò 5" x1="-289" y1="-74.96" x2="-293" y2="-43.97" xlink:href="#_Áåçûìÿííûé_ãðàäèåíò_5"/>
    <linearGradient id="_Áåçûìÿííûé_ãðàäèåíò_5-10" data-name="Áåçûìÿííûé ãðàäèåíò 5" x1="394.36" y1="307.44" x2="595.41" y2="307.44" xlink:href="#_Áåçûìÿííûé_ãðàäèåíò_5"/>
    <linearGradient id="_Áåçûìÿííûé_ãðàäèåíò_2-8" data-name="Áåçûìÿííûé ãðàäèåíò 2" x1="515.89" y1="289.32" x2="478.08" y2="329.05" xlink:href="#_Áåçûìÿííûé_ãðàäèåíò_2"/>
    <linearGradient id="_Áåçûìÿííûé_ãðàäèåíò_84" data-name="Áåçûìÿííûé ãðàäèåíò 84" x1="-122.88" y1="331.56" x2="-86.51" y2="300.21" gradientTransform="translate(633.02 469.86) rotate(165.13) scale(1 -1)" gradientUnits="userSpaceOnUse">
      <stop offset=".27" stop-color="#acafaf"/>
      <stop offset=".99" stop-color="#ccc"/>
    </linearGradient>
    <linearGradient id="_Áåçûìÿííûé_ãðàäèåíò_84-2" data-name="Áåçûìÿííûé ãðàäèåíò 84" x1="-375.55" y1="-42.14" x2="-348.93" y2="-65.08" xlink:href="#_Áåçûìÿííûé_ãðàäèåíò_84"/>
  </defs>
  <g id="_Ñëîé_1" data-name="Ñëîé 1">
    <g>
      <g>
        <path class="cls-17" d="m860.4,389.52s5.41-25.15,1.61-59.05c-3.8-33.9-33.21-270.46-40.58-298.21-7.37-27.75-23.81-28.42-23.81-28.42l22.7,408.31,40.08-22.63Z"/>
        <path class="cls-10" d="m857.33,339.88c18.21-20.93,90.24-52.69,107.95-52.19,17.71.5,44.26,12.54,49,39.4,4.74,26.86-149.47,69.86-149.47,69.86,0,0-8.55-4.23-11.96-19.85-3.41-15.62,4.48-37.21,4.48-37.21Z"/>
        <path class="cls-21" d="m962.16,287.86c-14.31,2.22-41.62,28.9-29.12,62.04,12.5,33.15,73.07-9.33,73.07-9.33,0,0,11.32-5.59,6.54-19.92-4.79-14.33-23.2-37.04-50.49-32.8Z"/>
        <path class="cls-14" d="m962.98,298.5c21.98-7.32,43.45,20.39,40.09,33.8-3.36,13.41-24.86,21.89-40.9,23.15s-19.25-9.13-19.25-9.13c0,0-7.26-38.71,20.06-47.81Z"/>
        <path class="cls-12" d="m963.55,339.7c-9.8-11.54,4.21-30.68,18.54-16.34,14.33,14.34-5.84,31.31-18.54,16.34Z"/>
        <path class="cls-20" d="m339.11,688.46s-13.18-75.73-16.74-89.14-28.37-19.2-30.69-18.59c-2.31.61-5.85,146.69-5.85,146.69l53.28-38.96Z"/>
        <path class="cls-26" d="m1126.89,368.56c-8.73-22.13-57.57-43.39-105.44-41.82-47.86,1.57-75.16,16.25-92.28,24.51-17.12,8.26-523.3,294.97-590.07,337.21-66.77,42.25-126.26,106.32-131.12,118.76-4.87,12.43,3.87,14.57,3.87,14.57,0,0,10.85,15.69,95.49,4.35,84.64-11.34,123.58-15.74,189.87-43,66.29-27.26,244.93-123.73,346.96-184.25,102.03-60.52,196.92-108.75,237.87-141.91,40.96-33.16,47.75-81.08,44.85-88.42Z"/>
        <path class="cls-11" d="m338.18,696.14s-270.25-35.92-283.11-33.99c-12.86,1.93-55.8,30.42-55.06,33.19.74,2.78,226.34,88.11,229.26,85s63.92-41.06,87.52-58.47c23.6-17.41,21.39-25.74,21.39-25.74Z"/>
        <path class="cls-9" d="m1010.98,352.55c-.01-16.83-31.6-17.36-62.54-6.17-30.94,11.19-602.36,342.21-602.36,342.21,0,0,8.99,9.6-10.06,25.5-19.05,15.9-94.07,61.98-106.81,71.4-12.74,9.42-18.37,15.77-18.13,23.63.25,7.86,116.8-31.52,413.43-198.32,296.63-166.8,364.24-222.64,380.21-238.02,15.97-15.38,6.26-20.23,6.26-20.23Z"/>
        <path class="cls-18" d="m333.2,692.28s-12.46-81.38-15.77-93.87c-3.32-12.49-18.71-16.45-18.71-16.45,0,0,22.76,7.94,26.13,17.82,3.37,9.88,18.3,86.17,18.3,86.17l-9.94,6.33Z"/>
        <path class="cls-2" d="m334.19,705.73s-262.98-35.99-276.21-35.45C44.75,670.83,0,695.34,0,695.34c0,0,28.95-26.63,55.06-33.19,26.11-6.56,283.11,33.99,283.11,33.99,0,0-1.78,6.87-3.99,9.59Z"/>
        <path class="cls-6" d="m1050.17,328.74s63.21,8.51,76.82,40.18c0,0,4.68,17.15-13.29,50.42-17.96,33.27-41.54,47.98-78.01,69.57-36.48,21.59-225.92,132.81-392.13,222.29-166.2,89.48-201.58,93.1-226.32,98.04-24.74,4.94-87.11,14.42-106.03,16.75-18.91,2.34-62.24,7.38-78.29,3.37-16.05-4.01-20.97-7.22-20.97-7.22,0,0,110.39-8.52,243.35-69.09,132.96-60.57,514.86-272.67,585.15-324.02,70.29-51.35,68.09-65.23,66.61-68-1.48-2.77-6.28-9.67-24.98-19.93-18.69-10.26-31.92-12.36-31.92-12.36Z"/>
        <path class="cls-3" d="m1104.67,346.43s18.73,11.07,22.56,23.38c3.83,12.31-8.31,52.01-35.31,79.29-27,27.28-207.42,126.04-247.75,149.79-40.33,23.75-195.93,110.69-283.96,154.88-88.03,44.19-112.85,48.62-142.97,55.47-30.12,6.85-106.03,16.75-106.03,16.75,0,0,93.87-11.7,133.9-29.02,40.03-17.32,53.65-20.94,113.26-50.13,59.6-29.2,241.36-129.11,320.54-175.76,79.18-46.65,181.86-104.46,208.33-128.1,26.46-23.64,37.18-57.18,35.71-72.51s-18.28-24.04-18.28-24.04Z"/>
        <path class="cls-1" d="m668.5,818.75s2.33,3.51,8.79,4.77c6.46,1.26,31.87-4.67,31.87-4.67l-13.9-34.64-26.76,34.54Z"/>
        <path class="cls-7" d="m797.39,620.29c4.19,3.41,2.07,17.21-3.65,30.61-5.72,13.4-112.02,150.12-151.06,201.69-39.04,51.57-169.85,199.46-212.26,252.32-42.41,52.86-71.87,83.67-98.7,92.62-26.83,8.95,437.82-571.94,437.82-571.94l27.86-5.31Z"/>
        <path class="cls-16" d="m797.39,620.29s-94.93,138.59-126.04,178.05c-31.11,39.46-317.15,388.77-339.63,399.2-22.48,10.43-41.63,11.06-41.63,11.06,0,0,259.76-336.39,281.24-367.35,21.49-30.96,90.48-150.08,90.48-150.08,0,0,21.78-20.12,64.07-45.47,42.29-25.34,71.51-25.41,71.51-25.41Z"/>
        <path class="cls-29" d="m738.71,726.88c31.98-24.3,62.87-36.66,88.81-26.62,25.94,10.05,48.77,54.99,26.7,85.61-22.07,30.62-78.14,44.65-99.78,47.05-21.64,2.41-41.1-6.54-51.24-20.93-10.14-14.39-8.71-27.15-8.71-27.15l44.23-57.96Z"/>
        <g>
          <g>
            <path class="cls-30" d="m685.27,631.43c1.38-.37,2.64-1.61,3.14-3.1.36-1.07.23-2.11-.35-2.83-1.4-1.77-9.04-10.04-9.36-10.39l-.08-.08-.09-.06c-.8-.53-1.76-.68-2.73-.42-1.35.36-2.56,1.48-3.02,2.8-.37,1.06-.23,2.12.41,2.98,1.89,2.56,6.59,8.73,9.3,10.61.85.59,1.82.77,2.79.51h0Z"/>
            <path class="cls-15" d="m676.03,615.43c.66-.17,1.36-.11,1.98.3,0,0,7.92,8.58,9.32,10.34,1.04,1.31-.4,3.96-2.3,4.46-.65.17-1.35.09-2.02-.37-2.65-1.84-7.46-8.2-9.09-10.4-1.19-1.61.31-3.86,2.11-4.33h0Zm-.48-1.79c-1.66.44-3.09,1.77-3.66,3.39-.47,1.34-.28,2.74.53,3.84,2.38,3.23,6.79,8.92,9.52,10.82,1.07.74,2.33.97,3.56.64,1.67-.44,3.19-1.93,3.78-3.71.46-1.38.27-2.73-.5-3.7-1.42-1.79-9.08-10.09-9.41-10.45l-.15-.16-.19-.12c-1.02-.67-2.26-.87-3.48-.54h0Z"/>
          </g>
          <g>
            <path class="cls-30" d="m699.14,623.24c1.38-.37,2.64-1.61,3.14-3.1.36-1.07.23-2.11-.35-2.83-1.4-1.77-9.04-10.04-9.36-10.39l-.08-.08-.09-.06c-.8-.53-1.76-.68-2.73-.42-1.35.36-2.56,1.48-3.02,2.8-.37,1.06-.23,2.12.41,2.98,1.89,2.56,6.58,8.72,9.3,10.61.85.59,1.82.77,2.79.51h0Z"/>
            <path class="cls-15" d="m689.9,607.24c.66-.17,1.36-.11,1.98.3,0,0,7.92,8.58,9.32,10.34,1.04,1.31-.4,3.96-2.3,4.46-.65.17-1.35.09-2.02-.37-2.64-1.84-7.46-8.2-9.09-10.4-1.19-1.61.31-3.86,2.11-4.33h0Zm-.48-1.79c-1.66.44-3.09,1.77-3.66,3.39-.47,1.34-.28,2.74.53,3.84,2.38,3.23,6.79,8.92,9.52,10.82,1.07.74,2.33.97,3.56.64,1.67-.44,3.19-1.93,3.78-3.71.46-1.38.27-2.73-.5-3.7-1.42-1.79-9.08-10.09-9.41-10.45l-.15-.16-.19-.12c-1.02-.67-2.26-.87-3.48-.54h0Z"/>
          </g>
          <g>
            <path class="cls-30" d="m711.23,616.7c1.38-.37,2.64-1.61,3.14-3.1.36-1.07.23-2.11-.35-2.83-1.4-1.77-9.04-10.04-9.37-10.39l-.08-.08-.09-.06c-.8-.53-1.76-.68-2.73-.42-1.35.36-2.56,1.48-3.02,2.8-.37,1.06-.23,2.12.41,2.98,1.89,2.56,6.58,8.72,9.3,10.61.85.59,1.82.77,2.79.51h0Z"/>
            <path class="cls-15" d="m701.99,600.7c.66-.17,1.36-.11,1.98.3,0,0,7.92,8.58,9.32,10.34,1.04,1.31-.4,3.96-2.3,4.46-.65.17-1.35.09-2.02-.37-2.64-1.84-7.46-8.2-9.09-10.4-1.19-1.61.31-3.86,2.11-4.33h0Zm-.48-1.79c-1.66.44-3.09,1.77-3.66,3.39-.47,1.34-.28,2.74.53,3.84,2.38,3.23,6.79,8.92,9.52,10.82,1.07.74,2.33.97,3.56.64,1.67-.44,3.19-1.93,3.78-3.71.46-1.38.27-2.73-.5-3.7-1.42-1.79-9.08-10.09-9.41-10.45l-.15-.16-.19-.12c-1.02-.67-2.26-.87-3.48-.54h0Z"/>
          </g>
          <g>
            <path class="cls-30" d="m723.29,609.98c1.38-.37,2.64-1.61,3.14-3.1.36-1.07.23-2.11-.35-2.83-1.4-1.77-9.04-10.04-9.36-10.4l-.08-.08-.09-.06c-.8-.53-1.76-.68-2.73-.42-1.35.36-2.56,1.48-3.02,2.8-.37,1.06-.23,2.12.41,2.98,1.89,2.56,6.58,8.72,9.3,10.61.85.59,1.82.77,2.79.51h0Z"/>
            <path class="cls-15" d="m714.05,593.98c.66-.17,1.36-.11,1.98.3,0,0,7.92,8.58,9.32,10.34,1.04,1.31-.4,3.96-2.3,4.46-.65.17-1.35.09-2.02-.37-2.64-1.84-7.46-8.2-9.09-10.4-1.19-1.61.31-3.86,2.11-4.33h0Zm-.48-1.79c-1.66.44-3.09,1.77-3.66,3.39-.47,1.34-.28,2.74.53,3.84,2.38,3.23,6.79,8.92,9.52,10.82,1.07.74,2.33.97,3.56.64,1.67-.44,3.19-1.93,3.78-3.71.46-1.38.27-2.73-.5-3.7-1.42-1.79-9.08-10.09-9.41-10.45l-.15-.16-.19-.12c-1.02-.67-2.26-.87-3.48-.54h0Z"/>
          </g>
          <g>
            <path class="cls-30" d="m735.41,603.07c1.38-.37,2.64-1.61,3.14-3.1.36-1.07.23-2.11-.35-2.83-1.4-1.77-9.04-10.04-9.36-10.4l-.08-.08-.09-.06c-.8-.53-1.76-.68-2.73-.42-1.35.36-2.56,1.48-3.02,2.8-.37,1.06-.23,2.12.41,2.98,1.89,2.56,6.58,8.72,9.3,10.61.85.59,1.82.77,2.79.51h0Z"/>
            <path class="cls-15" d="m726.17,587.07c.66-.17,1.36-.11,1.98.3,0,0,7.92,8.58,9.32,10.34,1.04,1.31-.4,3.96-2.3,4.46-.65.17-1.35.09-2.02-.37-2.64-1.84-7.46-8.2-9.09-10.4-1.19-1.61.31-3.86,2.11-4.33h0Zm-.48-1.79c-1.66.44-3.09,1.77-3.66,3.39-.47,1.34-.28,2.74.53,3.84,2.38,3.23,6.79,8.92,9.52,10.82,1.07.74,2.33.97,3.56.64,1.67-.44,3.19-1.93,3.78-3.71.46-1.38.27-2.73-.5-3.7-1.42-1.79-9.08-10.09-9.41-10.45l-.15-.17-.19-.12c-1.02-.67-2.26-.87-3.48-.54h0Z"/>
          </g>
          <g>
            <path class="cls-30" d="m749.21,595.26c1.38-.37,2.64-1.61,3.14-3.1.36-1.07.23-2.11-.35-2.83-1.4-1.77-9.04-10.04-9.36-10.4l-.08-.08-.09-.06c-.8-.53-1.76-.68-2.73-.42-1.35.36-2.56,1.48-3.02,2.8-.37,1.06-.23,2.12.41,2.98,1.89,2.56,6.58,8.72,9.3,10.61.85.59,1.82.77,2.79.51h0Z"/>
            <path class="cls-15" d="m739.97,579.26c.66-.17,1.36-.11,1.98.3,0,0,7.92,8.58,9.32,10.34,1.04,1.31-.4,3.96-2.3,4.46-.65.17-1.35.09-2.02-.37-2.64-1.84-7.46-8.2-9.09-10.4-1.19-1.61.31-3.86,2.11-4.33h0Zm-.48-1.79c-1.66.44-3.09,1.77-3.66,3.39-.47,1.34-.28,2.74.53,3.84,2.38,3.23,6.79,8.92,9.52,10.82,1.07.74,2.33.97,3.56.64,1.67-.44,3.19-1.93,3.78-3.71.46-1.38.27-2.73-.5-3.7-1.42-1.79-9.08-10.09-9.41-10.45l-.15-.17-.19-.12c-1.02-.67-2.26-.87-3.48-.54h0Z"/>
          </g>
          <g>
            <path class="cls-30" d="m763.07,587.06c1.38-.37,2.64-1.61,3.14-3.1.36-1.07.23-2.11-.35-2.83-1.4-1.77-9.04-10.04-9.36-10.39l-.08-.08-.09-.06c-.8-.53-1.77-.68-2.73-.42-1.35.36-2.56,1.48-3.02,2.8-.37,1.06-.23,2.12.41,2.98,1.89,2.56,6.59,8.72,9.3,10.61.85.59,1.82.77,2.79.51h0Z"/>
            <path class="cls-15" d="m753.84,571.06c.66-.17,1.36-.11,1.98.3,0,0,7.92,8.58,9.32,10.34,1.04,1.31-.4,3.96-2.3,4.46-.65.17-1.35.09-2.02-.37-2.65-1.84-7.46-8.2-9.09-10.4-1.19-1.61.31-3.86,2.11-4.33h0Zm-.48-1.79c-1.66.44-3.09,1.77-3.66,3.39-.47,1.34-.28,2.74.53,3.84,2.38,3.23,6.79,8.92,9.52,10.82,1.07.74,2.33.97,3.56.64,1.67-.44,3.19-1.93,3.78-3.71.46-1.38.27-2.73-.5-3.7-1.42-1.79-9.08-10.09-9.41-10.45l-.15-.16-.19-.12c-1.02-.67-2.26-.87-3.48-.54h0Z"/>
          </g>
          <g>
            <path class="cls-30" d="m775.17,580.53c1.38-.37,2.64-1.61,3.14-3.1.36-1.07.23-2.11-.35-2.83-1.4-1.77-9.04-10.04-9.36-10.39l-.08-.08-.09-.06c-.8-.53-1.77-.68-2.73-.42-1.35.36-2.56,1.48-3.02,2.8-.37,1.06-.23,2.12.41,2.98,1.89,2.56,6.59,8.72,9.3,10.61.85.59,1.82.77,2.79.51h0Z"/>
            <path class="cls-15" d="m765.93,564.53c.66-.17,1.36-.11,1.98.3,0,0,7.92,8.58,9.32,10.34,1.04,1.31-.4,3.96-2.3,4.46-.65.17-1.35.09-2.02-.37-2.64-1.84-7.46-8.2-9.09-10.4-1.19-1.61.31-3.86,2.11-4.33h0Zm-.48-1.79c-1.66.44-3.09,1.77-3.66,3.39-.47,1.34-.28,2.74.53,3.84,2.38,3.23,6.79,8.92,9.52,10.82,1.07.74,2.33.97,3.56.64,1.67-.44,3.19-1.93,3.78-3.71.46-1.38.27-2.73-.5-3.7-1.42-1.79-9.08-10.09-9.41-10.45l-.15-.17-.19-.12c-1.02-.67-2.26-.87-3.48-.54h0Z"/>
          </g>
          <g>
            <path class="cls-30" d="m787.23,573.8c1.38-.37,2.64-1.61,3.14-3.1.36-1.07.23-2.11-.35-2.83-1.4-1.77-9.04-10.04-9.36-10.39l-.08-.08-.09-.06c-.8-.53-1.77-.68-2.73-.42-1.35.36-2.56,1.48-3.02,2.8-.37,1.06-.23,2.12.41,2.98,1.89,2.56,6.59,8.72,9.3,10.61.85.59,1.82.77,2.79.51h0Z"/>
            <path class="cls-15" d="m777.99,557.8c.66-.17,1.36-.11,1.98.3,0,0,7.92,8.58,9.32,10.34,1.04,1.31-.4,3.96-2.3,4.46-.65.17-1.35.09-2.02-.37-2.64-1.84-7.46-8.2-9.09-10.4-1.19-1.61.31-3.86,2.11-4.33h0Zm-.48-1.79c-1.66.44-3.09,1.77-3.66,3.39-.47,1.34-.28,2.74.53,3.84,2.38,3.23,6.79,8.92,9.52,10.82,1.07.74,2.33.97,3.56.64,1.67-.44,3.19-1.93,3.78-3.71.46-1.38.27-2.73-.5-3.7-1.42-1.79-9.08-10.09-9.41-10.45l-.15-.17-.19-.12c-1.02-.67-2.26-.87-3.48-.54h0Z"/>
          </g>
          <g>
            <path class="cls-30" d="m799.35,566.89c1.38-.37,2.64-1.61,3.14-3.1.36-1.07.23-2.11-.35-2.83-1.4-1.77-9.04-10.04-9.36-10.39l-.08-.08-.09-.06c-.8-.53-1.77-.68-2.73-.42-1.35.36-2.56,1.48-3.02,2.8-.37,1.06-.23,2.12.41,2.98,1.89,2.56,6.59,8.72,9.3,10.61.85.59,1.82.77,2.79.51h0Z"/>
            <path class="cls-15" d="m790.11,550.89c.66-.17,1.36-.11,1.98.3,0,0,7.92,8.58,9.32,10.34,1.04,1.31-.4,3.96-2.3,4.46-.65.17-1.35.09-2.02-.37-2.65-1.84-7.46-8.2-9.09-10.4-1.19-1.61.31-3.86,2.11-4.33h0Zm-.48-1.79c-1.66.44-3.09,1.77-3.66,3.39-.47,1.34-.28,2.74.53,3.84,2.38,3.23,6.79,8.92,9.52,10.82,1.07.74,2.33.97,3.56.64,1.67-.44,3.19-1.93,3.78-3.71.46-1.38.27-2.73-.5-3.7-1.42-1.79-9.08-10.09-9.41-10.45l-.15-.17-.19-.12c-1.02-.67-2.26-.87-3.48-.54h0Z"/>
          </g>
          <g>
            <path class="cls-30" d="m557.29,703.9c1.38-.37,2.64-1.61,3.14-3.1.36-1.07.23-2.11-.35-2.83-1.4-1.77-9.04-10.04-9.37-10.39l-.08-.08-.09-.06c-.8-.53-1.76-.68-2.73-.42-1.35.36-2.56,1.48-3.02,2.8-.37,1.06-.23,2.12.41,2.98,1.89,2.56,6.58,8.72,9.3,10.61.85.59,1.82.77,2.79.51h0Z"/>
            <path class="cls-15" d="m548.06,687.9c.66-.17,1.36-.11,1.98.3,0,0,7.92,8.58,9.32,10.34,1.04,1.31-.4,3.96-2.3,4.46-.65.17-1.35.09-2.02-.37-2.64-1.84-7.46-8.2-9.09-10.4-1.19-1.61.31-3.86,2.11-4.33h0Zm-.48-1.79c-1.66.44-3.09,1.77-3.66,3.39-.47,1.34-.28,2.74.53,3.84,2.38,3.23,6.79,8.92,9.52,10.82,1.07.74,2.33.97,3.56.64,1.67-.44,3.19-1.93,3.78-3.71.46-1.38.27-2.73-.5-3.7-1.42-1.79-9.08-10.09-9.41-10.45l-.15-.17-.19-.12c-1.02-.67-2.26-.87-3.48-.54h0Z"/>
          </g>
          <g>
            <path class="cls-30" d="m571.16,695.71c1.38-.37,2.64-1.61,3.14-3.1.35-1.07.23-2.11-.35-2.83-1.4-1.77-9.04-10.04-9.36-10.39l-.08-.08-.09-.06c-.8-.53-1.76-.68-2.73-.42-1.35.36-2.56,1.48-3.02,2.8-.37,1.06-.23,2.12.41,2.98,1.89,2.56,6.59,8.72,9.3,10.61.85.59,1.82.77,2.79.51h0Z"/>
            <path class="cls-15" d="m561.92,679.71c.66-.17,1.36-.11,1.98.3,0,0,7.92,8.58,9.32,10.34,1.04,1.31-.4,3.96-2.3,4.46-.65.17-1.35.09-2.02-.37-2.64-1.84-7.46-8.2-9.09-10.4-1.19-1.61.31-3.86,2.11-4.33h0Zm-.48-1.79c-1.66.44-3.09,1.77-3.66,3.39-.47,1.34-.28,2.74.53,3.84,2.38,3.23,6.79,8.92,9.52,10.82,1.07.74,2.33.97,3.56.64,1.67-.44,3.19-1.93,3.78-3.71.46-1.38.27-2.73-.5-3.7-1.42-1.79-9.08-10.09-9.41-10.45l-.15-.17-.19-.12c-1.02-.67-2.26-.87-3.48-.54h0Z"/>
          </g>
          <g>
            <path class="cls-30" d="m583.26,689.17c1.38-.37,2.64-1.61,3.14-3.1.35-1.07.23-2.11-.35-2.83-1.4-1.77-9.04-10.04-9.36-10.39l-.08-.08-.09-.06c-.8-.53-1.76-.68-2.73-.42-1.35.36-2.56,1.48-3.02,2.8-.37,1.06-.23,2.12.41,2.98,1.89,2.56,6.59,8.73,9.3,10.61.85.59,1.82.77,2.79.51h0Z"/>
            <path class="cls-15" d="m574.02,673.17c.66-.17,1.36-.11,1.98.3,0,0,7.92,8.58,9.32,10.34,1.04,1.31-.4,3.96-2.3,4.46-.65.17-1.35.09-2.02-.37-2.65-1.84-7.46-8.2-9.09-10.4-1.19-1.61.31-3.86,2.11-4.33h0Zm-.48-1.79c-1.66.44-3.09,1.77-3.66,3.39-.47,1.34-.28,2.74.53,3.84,2.38,3.23,6.79,8.92,9.52,10.82,1.07.74,2.33.97,3.56.64,1.67-.44,3.19-1.93,3.78-3.71.46-1.38.27-2.73-.5-3.7-1.42-1.79-9.08-10.09-9.41-10.45l-.15-.17-.19-.12c-1.02-.67-2.26-.87-3.48-.54h0Z"/>
          </g>
          <g>
            <path class="cls-30" d="m595.31,682.45c1.38-.37,2.64-1.61,3.14-3.1.35-1.07.23-2.11-.35-2.83-1.4-1.77-9.04-10.04-9.36-10.39l-.08-.08-.09-.06c-.8-.53-1.76-.68-2.73-.42-1.35.36-2.56,1.48-3.02,2.8-.37,1.06-.23,2.12.41,2.98,1.89,2.56,6.59,8.73,9.3,10.61.85.59,1.82.77,2.79.51h0Z"/>
            <path class="cls-15" d="m586.07,666.45c.66-.17,1.36-.11,1.98.3,0,0,7.92,8.58,9.32,10.34,1.04,1.31-.4,3.96-2.3,4.46-.65.17-1.35.09-2.02-.37-2.65-1.84-7.46-8.2-9.09-10.4-1.19-1.61.31-3.86,2.11-4.33h0Zm-.48-1.79c-1.66.44-3.09,1.77-3.66,3.39-.47,1.34-.28,2.74.53,3.84,2.38,3.23,6.79,8.92,9.52,10.82,1.07.74,2.33.97,3.56.64,1.67-.44,3.19-1.93,3.78-3.71.46-1.38.27-2.73-.5-3.7-1.42-1.79-9.08-10.09-9.41-10.45l-.15-.16-.19-.12c-1.02-.67-2.26-.87-3.48-.54h0Z"/>
          </g>
          <g>
            <path class="cls-30" d="m607.43,675.54c1.38-.37,2.64-1.61,3.14-3.1.35-1.07.23-2.11-.35-2.83-1.4-1.77-9.04-10.04-9.36-10.39l-.08-.08-.09-.06c-.8-.53-1.76-.68-2.73-.42-1.35.36-2.56,1.48-3.02,2.8-.37,1.06-.23,2.12.41,2.98,1.89,2.56,6.59,8.73,9.3,10.61.85.59,1.82.77,2.79.51h0Z"/>
            <path class="cls-15" d="m598.2,659.54c.66-.17,1.36-.11,1.98.3,0,0,7.92,8.58,9.32,10.34,1.04,1.31-.4,3.96-2.3,4.46-.65.17-1.35.09-2.02-.37-2.64-1.84-7.46-8.2-9.09-10.4-1.19-1.61.31-3.86,2.11-4.33h0Zm-.48-1.79c-1.66.44-3.09,1.77-3.66,3.39-.47,1.34-.28,2.74.53,3.84,2.38,3.23,6.79,8.92,9.52,10.82,1.07.74,2.33.97,3.56.64,1.67-.44,3.19-1.93,3.78-3.71.46-1.38.27-2.73-.5-3.7-1.42-1.79-9.08-10.09-9.41-10.45l-.15-.16-.19-.12c-1.02-.67-2.26-.87-3.48-.54h0Z"/>
          </g>
          <g>
            <path class="cls-30" d="m621.23,667.73c1.38-.37,2.64-1.61,3.14-3.1.36-1.07.23-2.11-.35-2.83-1.4-1.77-9.04-10.04-9.37-10.39l-.08-.08-.09-.06c-.8-.53-1.76-.68-2.73-.42-1.35.36-2.56,1.48-3.02,2.8-.37,1.06-.23,2.12.41,2.98,1.89,2.56,6.59,8.72,9.3,10.61.85.59,1.82.77,2.79.51h0Z"/>
            <path class="cls-15" d="m611.99,651.73c.66-.17,1.36-.11,1.98.3,0,0,7.92,8.58,9.32,10.34,1.04,1.31-.4,3.96-2.3,4.46-.65.17-1.35.09-2.02-.37-2.64-1.84-7.46-8.2-9.09-10.4-1.19-1.61.31-3.86,2.11-4.33h0Zm-.48-1.79c-1.66.44-3.09,1.77-3.66,3.39-.47,1.34-.28,2.74.53,3.84,2.38,3.23,6.79,8.92,9.52,10.82,1.07.74,2.33.97,3.56.64,1.67-.44,3.19-1.93,3.78-3.71.46-1.38.27-2.73-.5-3.7-1.42-1.79-9.08-10.09-9.41-10.45l-.15-.16-.19-.12c-1.02-.67-2.26-.87-3.48-.54h0Z"/>
          </g>
          <g>
            <path class="cls-30" d="m635.1,659.53c1.38-.37,2.64-1.61,3.14-3.1.36-1.07.23-2.11-.35-2.84-1.4-1.77-9.04-10.04-9.36-10.39l-.08-.08-.09-.06c-.8-.53-1.76-.68-2.73-.42-1.35.36-2.56,1.48-3.02,2.8-.37,1.06-.23,2.12.41,2.98,1.89,2.56,6.58,8.72,9.3,10.61.85.59,1.82.77,2.79.51h0Z"/>
            <path class="cls-15" d="m625.86,643.53c.66-.17,1.36-.11,1.98.3,0,0,7.92,8.58,9.32,10.34,1.04,1.31-.4,3.96-2.3,4.46-.65.17-1.35.09-2.02-.37-2.64-1.84-7.46-8.2-9.09-10.4-1.19-1.61.31-3.86,2.11-4.33h0Zm-.48-1.79c-1.66.44-3.09,1.77-3.66,3.39-.47,1.34-.28,2.74.53,3.84,2.38,3.23,6.79,8.92,9.52,10.82,1.07.74,2.33.97,3.56.64,1.67-.44,3.19-1.93,3.78-3.71.46-1.38.27-2.73-.5-3.7-1.42-1.79-9.08-10.09-9.41-10.45l-.15-.16-.19-.12c-1.02-.67-2.26-.87-3.48-.54h0Z"/>
          </g>
          <g>
            <path class="cls-30" d="m647.2,653c1.38-.37,2.64-1.61,3.14-3.1.36-1.07.23-2.11-.35-2.83-1.4-1.77-9.04-10.04-9.37-10.39l-.08-.08-.09-.06c-.8-.53-1.76-.68-2.73-.42-1.35.36-2.56,1.48-3.02,2.8-.37,1.06-.23,2.12.41,2.98,1.89,2.56,6.58,8.72,9.3,10.61.85.59,1.82.77,2.79.51h0Z"/>
            <path class="cls-15" d="m637.96,637c.66-.17,1.36-.11,1.98.3,0,0,7.92,8.58,9.32,10.34,1.04,1.31-.4,3.96-2.3,4.46-.65.17-1.35.09-2.02-.37-2.65-1.84-7.46-8.2-9.09-10.4-1.19-1.61.31-3.86,2.11-4.33h0Zm-.48-1.79c-1.66.44-3.09,1.77-3.66,3.39-.47,1.34-.28,2.74.53,3.84,2.38,3.23,6.79,8.92,9.52,10.82,1.07.74,2.33.97,3.56.64,1.67-.44,3.19-1.93,3.78-3.71.46-1.38.27-2.73-.5-3.7-1.42-1.79-9.08-10.09-9.41-10.45l-.15-.16-.19-.12c-1.02-.67-2.26-.87-3.48-.54h0Z"/>
          </g>
          <g>
            <path class="cls-30" d="m659.25,646.27c1.38-.37,2.64-1.61,3.14-3.1.36-1.07.23-2.11-.35-2.83-1.4-1.77-9.04-10.04-9.36-10.39l-.08-.08-.09-.06c-.8-.53-1.76-.68-2.73-.42-1.35.36-2.56,1.48-3.02,2.8-.37,1.06-.23,2.12.41,2.98,1.89,2.56,6.58,8.72,9.3,10.61.85.59,1.82.77,2.79.51h0Z"/>
            <path class="cls-15" d="m650.01,630.27c.66-.17,1.36-.11,1.98.3,0,0,7.92,8.58,9.32,10.34,1.04,1.31-.4,3.96-2.3,4.46-.65.17-1.35.09-2.02-.37-2.64-1.84-7.46-8.2-9.09-10.4-1.19-1.61.31-3.86,2.11-4.33h0Zm-.48-1.79c-1.66.44-3.09,1.77-3.66,3.39-.47,1.34-.28,2.74.53,3.84,2.38,3.23,6.79,8.92,9.52,10.82,1.07.74,2.33.97,3.56.64,1.67-.44,3.19-1.93,3.78-3.71.46-1.38.27-2.73-.5-3.7-1.42-1.79-9.08-10.09-9.41-10.45l-.15-.16-.19-.12c-1.02-.67-2.26-.87-3.48-.54h0Z"/>
          </g>
          <g>
            <path class="cls-30" d="m671.37,639.36c1.38-.37,2.64-1.61,3.14-3.1.36-1.07.23-2.11-.35-2.83-1.4-1.77-9.04-10.04-9.36-10.4l-.08-.08-.09-.06c-.8-.53-1.76-.68-2.73-.42-1.35.36-2.56,1.48-3.02,2.8-.37,1.06-.23,2.12.41,2.98,1.89,2.56,6.58,8.72,9.3,10.61.85.59,1.82.77,2.79.51h0Z"/>
            <path class="cls-15" d="m662.14,623.36c.66-.17,1.36-.11,1.98.3,0,0,7.92,8.58,9.32,10.34,1.04,1.31-.4,3.96-2.3,4.46-.65.17-1.35.09-2.02-.37-2.65-1.84-7.46-8.2-9.09-10.4-1.19-1.61.31-3.86,2.11-4.33h0Zm-.48-1.79c-1.66.44-3.09,1.77-3.66,3.39-.47,1.34-.28,2.74.53,3.84,2.38,3.23,6.79,8.92,9.52,10.82,1.07.74,2.33.97,3.56.64,1.67-.44,3.19-1.93,3.78-3.71.46-1.38.27-2.73-.5-3.7-1.42-1.79-9.08-10.09-9.41-10.45l-.15-.17-.19-.12c-1.02-.67-2.26-.87-3.48-.54h0Z"/>
          </g>
        </g>
        <g>
          <g>
            <path class="cls-30" d="m354.45,796.04c1.34-.36,2.61-1.49,3.15-2.81.38-.94.36-1.86-.08-2.59-1.15-1.94-7.59-11.18-7.87-11.57l-.06-.09-.08-.07c-.86-.76-1.99-1-3.18-.68-1.29.34-2.45,1.32-2.95,2.49-.4.93-.36,1.92.1,2.78,1.53,2.79,5.34,9.53,7.78,11.77.89.82,2.02,1.1,3.19.79h0Z"/>
            <path class="cls-15" d="m346.56,779.11c.8-.21,1.66-.11,2.33.48,0,0,6.68,9.58,7.83,11.51.8,1.35-.72,3.56-2.51,4.04-.78.21-1.61.09-2.33-.57-2.37-2.18-6.28-9.14-7.59-11.54-.89-1.63.58-3.48,2.27-3.93h0Zm-.48-1.79c-1.58.42-2.94,1.58-3.56,3.02-.52,1.2-.47,2.48.14,3.59,1.92,3.52,5.52,9.77,7.96,12.01,1.11,1.02,2.59,1.39,4.06,1,1.63-.43,3.11-1.75,3.77-3.36.5-1.21.45-2.43-.14-3.42-1.17-1.97-7.63-11.24-7.9-11.63l-.13-.18-.17-.15c-1.09-.95-2.55-1.27-4.03-.88h0Z"/>
          </g>
          <g>
            <path class="cls-30" d="m369.3,789.81c1.34-.36,2.61-1.49,3.15-2.81.38-.94.36-1.86-.08-2.59-1.15-1.94-7.59-11.18-7.86-11.57l-.06-.09-.08-.07c-.86-.76-1.99-1-3.18-.68-1.29.34-2.45,1.32-2.95,2.49-.4.93-.36,1.92.1,2.78,1.53,2.79,5.34,9.53,7.78,11.77.89.82,2.02,1.1,3.19.79h0Z"/>
            <path class="cls-15" d="m361.41,772.87c.8-.21,1.66-.11,2.33.48,0,0,6.68,9.58,7.83,11.51.8,1.35-.72,3.56-2.51,4.04-.78.21-1.61.09-2.33-.57-2.37-2.18-6.28-9.14-7.59-11.54-.89-1.63.58-3.48,2.27-3.93h0Zm-.48-1.79c-1.58.42-2.94,1.58-3.56,3.02-.52,1.2-.47,2.48.14,3.59,1.92,3.52,5.52,9.77,7.96,12.01,1.11,1.02,2.59,1.39,4.06,1,1.63-.43,3.11-1.75,3.77-3.36.5-1.21.45-2.43-.14-3.42-1.17-1.97-7.63-11.24-7.9-11.63l-.13-.18-.17-.15c-1.09-.95-2.55-1.27-4.03-.88h0Z"/>
          </g>
          <g>
            <path class="cls-30" d="m382.17,784.98c1.34-.36,2.61-1.49,3.15-2.81.38-.94.36-1.86-.08-2.59-1.15-1.94-7.59-11.18-7.86-11.57l-.06-.09-.09-.07c-.86-.76-1.99-1-3.18-.68-1.29.34-2.45,1.32-2.95,2.49-.4.93-.36,1.92.1,2.78,1.53,2.79,5.34,9.53,7.78,11.77.89.82,2.02,1.1,3.19.79h0Z"/>
            <path class="cls-15" d="m374.29,768.04c.8-.21,1.66-.11,2.33.48,0,0,6.68,9.58,7.83,11.51.8,1.35-.72,3.56-2.51,4.04-.78.21-1.61.09-2.33-.57-2.37-2.18-6.28-9.14-7.59-11.54-.89-1.63.58-3.48,2.27-3.93h0Zm-.48-1.79c-1.58.42-2.94,1.58-3.56,3.02-.52,1.2-.47,2.48.14,3.59,1.92,3.52,5.51,9.76,7.96,12.01,1.11,1.02,2.59,1.39,4.06,1,1.63-.43,3.11-1.75,3.77-3.36.5-1.21.45-2.43-.14-3.42-1.17-1.97-7.63-11.24-7.9-11.63l-.13-.18-.17-.15c-1.09-.95-2.55-1.27-4.03-.88h0Z"/>
          </g>
          <g>
            <path class="cls-30" d="m395.03,779.95c1.34-.36,2.61-1.49,3.15-2.81.38-.94.36-1.86-.08-2.59-1.15-1.94-7.59-11.18-7.86-11.57l-.06-.09-.08-.07c-.86-.76-1.99-1-3.18-.68-1.29.34-2.45,1.32-2.95,2.49-.4.93-.36,1.92.1,2.78,1.53,2.8,5.34,9.54,7.78,11.77.89.82,2.02,1.1,3.19.79h0Z"/>
            <path class="cls-15" d="m387.14,763.02c.8-.21,1.66-.11,2.33.48,0,0,6.68,9.58,7.83,11.51.8,1.35-.72,3.56-2.51,4.04-.78.21-1.61.09-2.33-.57-2.37-2.18-6.28-9.14-7.59-11.54-.89-1.63.58-3.48,2.27-3.93h0Zm-.48-1.79c-1.58.42-2.94,1.58-3.56,3.02-.52,1.2-.47,2.48.14,3.59,1.92,3.52,5.52,9.77,7.96,12.01,1.11,1.02,2.59,1.39,4.06,1,1.63-.43,3.11-1.75,3.77-3.36.5-1.21.45-2.43-.14-3.42-1.17-1.97-7.63-11.24-7.9-11.63l-.13-.18-.17-.15c-1.09-.95-2.55-1.27-4.03-.88h0Z"/>
          </g>
          <g>
            <path class="cls-30" d="m407.98,774.75c1.34-.36,2.61-1.49,3.15-2.81.38-.94.36-1.86-.08-2.59-1.15-1.94-7.59-11.18-7.87-11.57l-.06-.09-.08-.07c-.86-.76-1.99-1-3.18-.68-1.29.34-2.45,1.32-2.95,2.49-.4.93-.36,1.92.1,2.78,1.53,2.79,5.34,9.53,7.78,11.77.89.82,2.02,1.1,3.19.79h0Z"/>
            <path class="cls-15" d="m400.09,757.82c.8-.21,1.66-.11,2.33.48,0,0,6.68,9.58,7.83,11.51.8,1.35-.72,3.56-2.51,4.04-.78.21-1.61.09-2.33-.57-2.37-2.18-6.28-9.14-7.59-11.54-.89-1.63.58-3.48,2.27-3.93h0Zm-.48-1.79c-1.58.42-2.94,1.58-3.56,3.02-.52,1.2-.47,2.48.14,3.59,1.92,3.52,5.52,9.77,7.96,12.01,1.11,1.02,2.59,1.39,4.06,1,1.63-.43,3.11-1.75,3.77-3.36.5-1.21.45-2.43-.14-3.42-1.17-1.97-7.63-11.24-7.9-11.63l-.13-.18-.17-.15c-1.09-.95-2.55-1.27-4.03-.88h0Z"/>
          </g>
          <g>
            <path class="cls-30" d="m422.71,768.89c1.34-.36,2.61-1.49,3.15-2.81.38-.94.36-1.86-.08-2.59-1.15-1.94-7.59-11.18-7.86-11.57l-.06-.09-.08-.07c-.86-.76-1.99-1-3.18-.68-1.29.34-2.45,1.32-2.95,2.49-.4.93-.36,1.92.1,2.78,1.53,2.8,5.34,9.54,7.78,11.77.89.82,2.02,1.1,3.19.79h0Z"/>
            <path class="cls-15" d="m414.83,751.96c.8-.21,1.66-.11,2.33.48,0,0,6.68,9.58,7.83,11.51.8,1.35-.72,3.56-2.51,4.04-.78.21-1.61.09-2.33-.57-2.37-2.18-6.28-9.14-7.59-11.54-.89-1.63.58-3.48,2.27-3.93h0Zm-.48-1.79c-1.58.42-2.94,1.58-3.56,3.02-.52,1.2-.47,2.48.14,3.59,1.92,3.52,5.51,9.77,7.96,12.01,1.11,1.02,2.59,1.39,4.06,1,1.63-.43,3.11-1.75,3.77-3.36.5-1.21.45-2.43-.14-3.42-1.17-1.97-7.63-11.24-7.9-11.63l-.13-.18-.17-.15c-1.09-.95-2.55-1.27-4.03-.88h0Z"/>
          </g>
          <g>
            <path class="cls-30" d="m437.56,762.66c1.34-.36,2.61-1.49,3.15-2.81.38-.94.35-1.86-.08-2.59-1.15-1.94-7.59-11.18-7.86-11.57l-.06-.09-.09-.07c-.85-.75-2.01-.99-3.18-.68-1.29.34-2.45,1.32-2.95,2.49-.4.93-.36,1.92.1,2.78,1.53,2.8,5.34,9.54,7.78,11.77.89.82,2.02,1.1,3.19.79h0Z"/>
            <path class="cls-15" d="m429.68,745.73c.8-.21,1.66-.11,2.33.48,0,0,6.68,9.58,7.83,11.51.8,1.35-.72,3.56-2.51,4.04-.78.21-1.61.09-2.33-.57-2.37-2.18-6.28-9.14-7.59-11.54-.89-1.63.58-3.48,2.27-3.93h0Zm-.48-1.79c-1.58.42-2.94,1.58-3.56,3.02-.52,1.2-.47,2.48.14,3.59,1.92,3.52,5.52,9.77,7.96,12.01,1.11,1.02,2.59,1.39,4.06,1,1.63-.43,3.11-1.75,3.77-3.36.5-1.21.45-2.43-.14-3.42-1.17-1.97-7.63-11.24-7.9-11.63l-.13-.18-.17-.15c-1.09-.95-2.55-1.27-4.03-.88h0Z"/>
          </g>
          <g>
            <path class="cls-30" d="m450.44,757.83c1.34-.36,2.61-1.49,3.15-2.81.38-.94.36-1.86-.08-2.59-1.15-1.94-7.59-11.18-7.86-11.57l-.06-.09-.08-.07c-.86-.76-1.99-1-3.18-.68-1.29.34-2.45,1.32-2.95,2.49-.4.93-.36,1.92.1,2.78,1.53,2.8,5.34,9.54,7.78,11.77.89.82,2.02,1.1,3.19.79h0Z"/>
            <path class="cls-15" d="m442.55,740.9c.8-.21,1.66-.11,2.33.48,0,0,6.68,9.58,7.83,11.51.8,1.35-.72,3.56-2.51,4.04-.78.21-1.61.09-2.33-.57-2.37-2.18-6.28-9.14-7.59-11.54-.89-1.63.58-3.48,2.27-3.93h0Zm-.48-1.79c-1.58.42-2.94,1.58-3.56,3.02-.52,1.2-.47,2.48.14,3.59,1.92,3.52,5.52,9.77,7.96,12.01,1.11,1.02,2.59,1.39,4.06,1,1.63-.43,3.11-1.75,3.77-3.36.5-1.21.45-2.43-.14-3.42-1.17-1.97-7.63-11.24-7.9-11.63l-.13-.18-.17-.15c-1.09-.95-2.55-1.27-4.03-.88h0Z"/>
          </g>
          <g>
            <path class="cls-30" d="m463.29,752.81c1.34-.36,2.61-1.49,3.15-2.81.38-.94.35-1.86-.08-2.59-1.15-1.94-7.59-11.18-7.86-11.57l-.06-.09-.08-.07c-.85-.75-2.01-.99-3.18-.68-1.29.34-2.45,1.32-2.95,2.49-.4.93-.36,1.92.1,2.78,1.53,2.79,5.34,9.54,7.78,11.77.89.82,2.02,1.1,3.19.79h0Z"/>
            <path class="cls-15" d="m455.41,735.87c.8-.21,1.66-.11,2.33.48,0,0,6.68,9.58,7.83,11.51.8,1.35-.72,3.56-2.51,4.04-.78.21-1.61.09-2.33-.57-2.37-2.18-6.28-9.14-7.59-11.54-.89-1.63.58-3.48,2.27-3.93h0Zm-.48-1.79c-1.58.42-2.94,1.58-3.56,3.02-.52,1.2-.47,2.48.14,3.59,1.92,3.52,5.51,9.76,7.96,12.01,1.11,1.02,2.59,1.39,4.06,1,1.63-.43,3.11-1.75,3.77-3.36.5-1.21.45-2.43-.14-3.42-1.17-1.97-7.63-11.24-7.9-11.63l-.13-.18-.17-.15c-1.09-.95-2.55-1.27-4.03-.88h0Z"/>
          </g>
          <g>
            <path class="cls-30" d="m476.25,747.61c1.34-.36,2.61-1.49,3.15-2.81.38-.94.36-1.86-.08-2.59-1.15-1.94-7.59-11.18-7.86-11.57l-.06-.09-.08-.07c-.86-.76-1.99-1-3.18-.68-1.29.34-2.45,1.32-2.95,2.49-.4.93-.36,1.92.1,2.78,1.53,2.8,5.34,9.54,7.78,11.77.89.82,2.02,1.1,3.19.79h0Z"/>
            <path class="cls-15" d="m468.36,730.67c.8-.21,1.66-.11,2.33.48,0,0,6.68,9.58,7.83,11.51.8,1.35-.72,3.56-2.51,4.04-.78.21-1.61.09-2.33-.57-2.37-2.18-6.28-9.14-7.59-11.54-.89-1.63.58-3.48,2.27-3.93h0Zm-.48-1.79c-1.58.42-2.94,1.58-3.56,3.02-.52,1.2-.47,2.48.14,3.59,1.92,3.52,5.51,9.77,7.96,12.01,1.11,1.02,2.59,1.39,4.06,1,1.63-.43,3.11-1.75,3.77-3.36.5-1.21.45-2.43-.14-3.42-1.17-1.97-7.63-11.24-7.9-11.63l-.13-.18-.17-.15c-1.09-.95-2.55-1.27-4.03-.88h0Z"/>
          </g>
        </g>
        <g>
          <g>
            <path class="cls-30" d="m843.24,538.68c1.39-.37,2.65-1.64,3.13-3.16.35-1.11.2-2.16-.41-2.88-1.45-1.73-9.32-9.78-9.65-10.13l-.08-.08-.1-.06c-.79-.49-1.7-.62-2.64-.37-1.36.36-2.58,1.51-3.03,2.86-.37,1.09-.2,2.17.47,3.02,1.96,2.51,6.83,8.53,9.6,10.34.84.55,1.77.7,2.71.46h0Z"/>
            <path class="cls-15" d="m833.72,522.9c.63-.17,1.3-.11,1.91.26,0,0,8.16,8.35,9.61,10.08,1.09,1.3-.32,4.04-2.24,4.55-.62.17-1.3.1-1.96-.34-2.7-1.76-7.69-7.98-9.38-10.14-1.25-1.6.24-3.93,2.07-4.41h0Zm-.48-1.79c-1.67.44-3.12,1.8-3.67,3.46-.46,1.38-.23,2.79.62,3.89,2.47,3.16,7.04,8.73,9.82,10.55,1.05.68,2.27.89,3.45.58,1.68-.45,3.2-1.96,3.77-3.77.45-1.41.23-2.78-.59-3.76-1.47-1.75-9.37-9.83-9.7-10.18l-.16-.16-.19-.12c-1-.62-2.19-.79-3.36-.48h0Z"/>
          </g>
          <g>
            <path class="cls-30" d="m856.86,530.1c1.39-.37,2.65-1.64,3.13-3.16.35-1.11.2-2.16-.41-2.88-1.45-1.73-9.32-9.78-9.65-10.13l-.08-.08-.1-.06c-.79-.49-1.7-.62-2.63-.37-1.36.36-2.58,1.51-3.03,2.86-.37,1.09-.2,2.17.47,3.02,1.96,2.51,6.83,8.53,9.6,10.34.84.55,1.77.7,2.71.46h0Z"/>
            <path class="cls-15" d="m847.35,514.32c.63-.17,1.3-.11,1.91.26,0,0,8.16,8.36,9.61,10.08,1.09,1.3-.32,4.04-2.24,4.55-.62.17-1.3.1-1.96-.34-2.7-1.76-7.69-7.98-9.38-10.14-1.25-1.6.24-3.93,2.07-4.41h0Zm-.48-1.79c-1.67.44-3.12,1.8-3.67,3.46-.46,1.38-.23,2.79.62,3.89,2.47,3.16,7.04,8.73,9.82,10.55,1.05.68,2.27.89,3.45.58,1.68-.45,3.2-1.96,3.77-3.77.45-1.41.23-2.78-.59-3.76-1.47-1.75-9.37-9.83-9.7-10.18l-.16-.16-.19-.12c-1-.62-2.19-.79-3.36-.48h0Z"/>
          </g>
          <g>
            <path class="cls-30" d="m868.77,523.23c1.39-.37,2.65-1.64,3.13-3.16.35-1.11.2-2.16-.41-2.88-1.45-1.73-9.32-9.78-9.65-10.13l-.08-.08-.1-.06c-.79-.49-1.7-.62-2.63-.37-1.36.36-2.58,1.51-3.03,2.86-.37,1.09-.2,2.17.47,3.02,1.96,2.51,6.83,8.53,9.6,10.34.84.55,1.77.7,2.71.46h0Z"/>
            <path class="cls-15" d="m859.26,507.44c.63-.17,1.3-.11,1.91.26,0,0,8.16,8.35,9.61,10.07,1.09,1.3-.32,4.04-2.24,4.55-.62.17-1.3.1-1.96-.34-2.7-1.76-7.69-7.98-9.38-10.14-1.25-1.6.24-3.93,2.07-4.41h0Zm-.48-1.79c-1.67.44-3.12,1.8-3.67,3.46-.46,1.38-.24,2.79.62,3.89,2.47,3.16,7.04,8.73,9.82,10.55,1.05.68,2.27.89,3.45.58,1.68-.45,3.2-1.96,3.77-3.77.45-1.41.23-2.78-.59-3.76-1.47-1.75-9.37-9.83-9.7-10.18l-.16-.16-.19-.12c-1-.62-2.19-.79-3.36-.48h0Z"/>
          </g>
          <g>
            <path class="cls-30" d="m880.63,516.16c1.39-.37,2.65-1.64,3.13-3.16.35-1.11.2-2.16-.41-2.88-1.45-1.73-9.32-9.78-9.65-10.13l-.08-.08-.1-.06c-.79-.49-1.7-.62-2.63-.37-1.36.36-2.58,1.51-3.03,2.86-.37,1.09-.2,2.17.47,3.02,1.96,2.51,6.83,8.53,9.6,10.34.84.55,1.77.7,2.71.46h0Z"/>
            <path class="cls-15" d="m871.12,500.38c.63-.17,1.3-.11,1.91.26,0,0,8.16,8.35,9.61,10.07,1.09,1.3-.32,4.04-2.24,4.55-.62.17-1.3.1-1.96-.34-2.7-1.76-7.69-7.98-9.38-10.14-1.25-1.6.24-3.93,2.07-4.41h0Zm-.48-1.79c-1.67.44-3.12,1.8-3.67,3.46-.46,1.38-.24,2.79.62,3.89,2.47,3.16,7.04,8.73,9.82,10.55,1.05.68,2.27.89,3.45.58,1.68-.45,3.2-1.96,3.77-3.77.45-1.41.23-2.78-.59-3.76-1.47-1.75-9.37-9.83-9.7-10.18l-.16-.16-.19-.12c-1-.62-2.19-.79-3.36-.48h0Z"/>
          </g>
          <g>
            <path class="cls-30" d="m892.56,508.91c1.39-.37,2.65-1.64,3.13-3.16.35-1.11.2-2.16-.41-2.88-1.45-1.73-9.32-9.78-9.65-10.13l-.08-.08-.1-.06c-.79-.49-1.7-.62-2.63-.37-1.36.36-2.58,1.51-3.03,2.86-.37,1.09-.2,2.17.47,3.02,1.96,2.51,6.83,8.53,9.6,10.34.84.55,1.77.7,2.71.46h0Z"/>
            <path class="cls-15" d="m883.04,493.13c.63-.17,1.3-.11,1.91.26,0,0,8.16,8.35,9.61,10.08,1.09,1.3-.32,4.04-2.24,4.55-.62.17-1.3.1-1.96-.34-2.7-1.76-7.69-7.98-9.38-10.14-1.25-1.6.24-3.93,2.07-4.41h0Zm-.48-1.79c-1.67.44-3.12,1.8-3.67,3.46-.46,1.38-.24,2.79.62,3.89,2.47,3.16,7.04,8.73,9.82,10.55,1.05.68,2.27.89,3.45.58,1.68-.45,3.2-1.96,3.77-3.77.45-1.41.23-2.78-.59-3.76-1.47-1.75-9.37-9.83-9.7-10.18l-.16-.16-.19-.12c-1-.62-2.19-.79-3.36-.48h0Z"/>
          </g>
          <g>
            <path class="cls-30" d="m906.13,500.72c1.39-.37,2.65-1.64,3.13-3.16.35-1.11.2-2.16-.41-2.88-1.45-1.73-9.32-9.78-9.65-10.13l-.08-.08-.1-.06c-.79-.49-1.7-.62-2.63-.37-1.36.36-2.58,1.51-3.03,2.86-.37,1.09-.2,2.17.47,3.02,1.96,2.51,6.83,8.53,9.6,10.34.84.55,1.77.7,2.71.46h0Z"/>
            <path class="cls-15" d="m896.62,484.93c.63-.17,1.3-.11,1.91.26,0,0,8.16,8.35,9.61,10.07,1.09,1.3-.32,4.04-2.24,4.55-.62.17-1.3.1-1.96-.34-2.7-1.76-7.69-7.98-9.38-10.14-1.25-1.6.24-3.93,2.07-4.41h0Zm-.48-1.79c-1.67.44-3.12,1.8-3.67,3.46-.46,1.38-.24,2.79.62,3.89,2.47,3.16,7.04,8.73,9.82,10.55,1.05.68,2.27.89,3.45.58,1.68-.45,3.2-1.96,3.77-3.77.45-1.41.23-2.78-.59-3.76-1.47-1.75-9.37-9.83-9.7-10.18l-.16-.16-.19-.12c-1-.62-2.19-.79-3.36-.48h0Z"/>
          </g>
          <g>
            <path class="cls-30" d="m919.76,492.13c1.39-.37,2.65-1.64,3.13-3.16.35-1.11.2-2.16-.41-2.88-1.45-1.73-9.32-9.78-9.65-10.13l-.08-.08-.1-.06c-.79-.49-1.7-.62-2.63-.37-1.36.36-2.58,1.51-3.03,2.86-.37,1.09-.2,2.17.47,3.02,1.96,2.51,6.83,8.53,9.6,10.34.84.55,1.77.7,2.71.46h0Z"/>
            <path class="cls-15" d="m910.25,476.35c.63-.17,1.3-.11,1.91.26,0,0,8.16,8.35,9.61,10.07,1.09,1.3-.32,4.04-2.24,4.55-.62.17-1.3.1-1.96-.34-2.7-1.76-7.69-7.98-9.38-10.14-1.25-1.6.24-3.93,2.07-4.41h0Zm-.48-1.79c-1.67.44-3.12,1.8-3.67,3.46-.46,1.38-.24,2.79.62,3.89,2.47,3.16,7.04,8.73,9.82,10.55,1.05.68,2.27.89,3.45.58,1.68-.45,3.2-1.96,3.77-3.77.45-1.41.23-2.78-.59-3.76-1.47-1.75-9.37-9.83-9.7-10.18l-.16-.16-.19-.12c-1-.62-2.19-.79-3.36-.48h0Z"/>
          </g>
          <g>
            <path class="cls-30" d="m931.67,485.26c1.39-.37,2.65-1.64,3.13-3.16.35-1.11.2-2.16-.41-2.88-1.45-1.73-9.32-9.78-9.65-10.13l-.08-.08-.1-.06c-.79-.49-1.7-.62-2.63-.37-1.36.36-2.58,1.51-3.03,2.86-.37,1.09-.2,2.17.47,3.02,1.96,2.51,6.83,8.53,9.6,10.34.84.55,1.77.7,2.71.46h0Z"/>
            <path class="cls-15" d="m922.15,469.48c.63-.17,1.3-.11,1.91.26,0,0,8.16,8.35,9.61,10.07,1.09,1.3-.32,4.04-2.24,4.55-.62.17-1.3.1-1.96-.34-2.7-1.76-7.69-7.98-9.38-10.14-1.25-1.6.24-3.93,2.07-4.41h0Zm-.48-1.79c-1.67.44-3.12,1.8-3.67,3.46-.46,1.38-.24,2.79.62,3.89,2.47,3.16,7.04,8.73,9.82,10.55,1.05.68,2.27.89,3.45.58,1.68-.45,3.2-1.96,3.77-3.77.45-1.41.23-2.78-.59-3.76-1.47-1.75-9.37-9.83-9.7-10.18l-.16-.16-.19-.12c-1-.62-2.19-.79-3.36-.48h0Z"/>
          </g>
          <g>
            <path class="cls-30" d="m943.52,478.2c1.39-.37,2.65-1.64,3.13-3.16.35-1.11.2-2.16-.41-2.88-1.45-1.73-9.32-9.78-9.65-10.13l-.08-.08-.1-.06c-.79-.49-1.7-.62-2.63-.37-1.36.36-2.58,1.51-3.03,2.86-.37,1.09-.2,2.17.47,3.02,1.96,2.51,6.83,8.53,9.6,10.34.84.55,1.77.7,2.71.46h0Z"/>
            <path class="cls-15" d="m934.01,462.41c.63-.17,1.3-.11,1.91.26,0,0,8.16,8.35,9.61,10.08,1.09,1.3-.32,4.04-2.24,4.55-.62.17-1.3.1-1.96-.34-2.7-1.76-7.69-7.98-9.38-10.14-1.25-1.6.24-3.93,2.07-4.41h0Zm-.48-1.79c-1.67.44-3.12,1.8-3.67,3.46-.46,1.38-.24,2.79.62,3.89,2.47,3.16,7.04,8.73,9.82,10.55,1.05.68,2.27.89,3.45.58,1.68-.45,3.2-1.96,3.77-3.77.45-1.41.23-2.78-.59-3.76-1.47-1.75-9.37-9.83-9.7-10.18l-.16-.16-.19-.12c-1-.62-2.19-.79-3.36-.48h0Z"/>
          </g>
          <g>
            <path class="cls-30" d="m955.45,470.95c1.39-.37,2.65-1.64,3.13-3.16.35-1.11.2-2.16-.41-2.88-1.45-1.73-9.32-9.78-9.65-10.13l-.08-.08-.1-.06c-.79-.49-1.7-.62-2.63-.37-1.36.36-2.58,1.51-3.03,2.86-.37,1.09-.2,2.17.47,3.02,1.96,2.51,6.83,8.53,9.6,10.34.84.55,1.77.7,2.71.46h0Z"/>
            <path class="cls-15" d="m945.94,455.16c.63-.17,1.3-.11,1.91.26,0,0,8.16,8.35,9.61,10.07,1.09,1.3-.32,4.04-2.24,4.55-.62.17-1.3.1-1.96-.34-2.7-1.76-7.69-7.98-9.38-10.14-1.25-1.6.24-3.93,2.07-4.41h0Zm-.48-1.79c-1.67.44-3.12,1.8-3.67,3.46-.46,1.38-.24,2.79.62,3.89,2.47,3.16,7.04,8.73,9.82,10.55,1.05.68,2.27.89,3.45.58,1.68-.45,3.2-1.96,3.77-3.77.45-1.41.23-2.79-.59-3.76-1.47-1.75-9.37-9.83-9.7-10.18l-.16-.16-.19-.12c-1-.62-2.19-.79-3.36-.48h0Z"/>
          </g>
          <path class="cls-30" d="m1027.79,328.22s32.56-.48,44.12,13.72c11.57,14.2,4.42,30.64-7.94,46.3-12.37,15.66-49.91,43.96-56.61,46.73s-16.11-24.94-15.23-26.9c.88-1.97,41.02-35.41,45.66-55.21,4.64-19.8-10.01-24.64-10.01-24.64Z"/>
        </g>
        <path class="cls-5" d="m773.97,1.78c2.49-3.51,30.29-.62,34.99,11.5,4.7,12.12,43.9,310.7,43.42,325.68-.48,14.98-4.67,57.69-4.67,57.69l-109.66,62s29.59-103.13,33.21-117.46c3.62-14.33-.54-334.84,2.7-339.42Z"/>
        <path class="cls-4" d="m1021.47,428.81c.69-1.67-20.92-32.08-20.92-32.08l2.46-1.94s24.01,29.82,23.69,31.39c-.33,1.57-5.22,2.63-5.22,2.63Z"/>
        <path class="cls-19" d="m1042.93,410.67c.48-1.76-25.12-29.55-25.12-29.55l2.22-2.26s27.94,26.89,27.81,28.51c-.13,1.62-4.91,3.31-4.91,3.31Z"/>
        <path class="cls-22" d="m1036.93,348.63c3.33-1.44,43.07,9.73,44.44,8.62,1.38-1.11-1.8-6.76-1.8-6.76,0,0-40.12-7.73-41.85-7.27-1.73.46-.79,5.41-.79,5.41Z"/>
        <path class="cls-3" d="m668.5,818.75s2.36,7.09,17.7,4.42c15.34-2.67,22.96-4.33,22.96-4.33,0,0,13.85,15.99,40.23,14.43,26.38-1.56,50.92-10.26,65-17.66,14.08-7.39,27.58-17.1,27.58-17.1,0,0-4.22,2.37-11.51,3.07,0,0-18.26,12.53-53.41,21.86s-56.89-1.67-66.64-8.54c-9.75-6.88-15.92-30.06-15.92-30.06l-2.68,3.5s1.5,17.19,12.07,27.16c0,0-12.33,3.92-21.61,4.41s-11.81-3.71-11.81-3.71l-1.96,2.55Z"/>
        <path class="cls-23" d="m776.42,706.76c-12.21,9.19-15.07,29.26-9.49,46.72,5.57,17.46,15.3,34.19,15.3,34.19,0,0-44.87,18.6-62.75,11.47-17.89-7.13.28-47.24,14-60.17,13.72-12.93,42.94-32.2,42.94-32.2Z"/>
        <path class="cls-24" d="m939.48,297.76c-12.67,14.75-14.61,38.22-14.29,41.27.31,3.05-61.15,37.61-67.15,34.27-6.01-3.33-5.19-22.33,3.3-33.25s35.92-24.15,45.67-28.47c9.75-4.32,32.48-13.82,32.48-13.82Z"/>
        <path class="cls-3" d="m775.86,435.39c.32-.09.59-.35.67-.7l23.1-103.87v-.12S787.65.89,787.65.89c-.02-.51-.45-.91-.96-.89-.51.02-.91.45-.89.96l11.98,329.7-23.05,103.64c-.11.5.2,1,.7,1.11.15.03.3.03.44,0Z"/>
        <path class="cls-3" d="m305.03,1205.4c2.95-3.71,294.79-371.18,299.5-377.17,4.76-6.05,85.6-152.66,89.04-158.9.25-.45.08-1.01-.36-1.26-.45-.25-1.01-.08-1.26.36-.84,1.53-84.2,152.72-88.87,158.65-4.71,5.99-296.55,373.45-299.5,377.16l1.45,1.15Z"/>
        <path class="cls-3" d="m820.99,569.79c-3.42.15-25.73-26.01-26.22-27.86-.63-2.37,6.7-10.73,13.88-14.82,3.83-2.18,6.41-2.99,7.67-2.4.37.18.54.43.62.6l28.2,28.35.03.13c.2.83-.11,1.79-.91,2.86-3.62,4.8-17.92,11.81-22.35,12.99-.38.1-.69.16-.91.17Zm-4.8-43.91l-.09-.07-.03-.14s-.04-.09-.23-.16c-.47-.16-2.08-.26-6.74,2.4-7.24,4.13-13.87,12.15-13.44,13.77.57,2.02,22.74,27.29,25.29,27.18,2.31-.1,18.53-7.46,22.55-12.79.58-.77.84-1.43.77-1.96l-28.08-28.23Z"/>
        <path class="cls-3" d="m981.07,472.39c-3.42.15-25.73-26.01-26.22-27.86-.63-2.37,6.7-10.73,13.88-14.82,3.83-2.18,6.41-2.99,7.67-2.41.37.18.54.43.62.6l28.2,28.35.03.13c.2.83-.11,1.79-.91,2.85-3.62,4.8-17.92,11.81-22.35,12.99-.38.1-.69.16-.91.17Zm-4.8-43.91l-.09-.07-.03-.14s-.04-.09-.23-.16c-.47-.16-2.07-.26-6.74,2.4-7.24,4.13-13.87,12.15-13.44,13.77.57,2.02,22.75,27.29,25.29,27.18,2.3-.11,18.54-7.46,22.55-12.79.58-.77.84-1.43.77-1.96l-28.08-28.23Z"/>
        <path class="cls-3" d="m515.58,739.38c-3.42.15-25.73-26.01-26.22-27.86-.63-2.37,6.7-10.73,13.88-14.82,3.83-2.18,6.41-2.99,7.67-2.4.37.18.54.43.62.6l28.2,28.35.03.13c.2.83-.11,1.79-.91,2.86-3.62,4.79-17.92,11.81-22.35,12.99-.38.1-.69.16-.91.17Zm-4.8-43.91l-.09-.07-.03-.14s-.04-.09-.23-.16c-.47-.16-2.08-.26-6.74,2.4-7.24,4.13-13.87,12.15-13.44,13.77.57,2.02,22.75,27.29,25.29,27.18,2.31-.1,18.54-7.46,22.56-12.79.58-.77.84-1.43.77-1.96l-28.08-28.23Z"/>
        <path class="cls-3" d="m827.34,407.38c.18-.05.32-.2.34-.4.07-.67,7.39-67.04,8.19-74.6.8-7.6-26.64-308.79-27.8-321.61-.02-.26-.25-.44-.5-.42-.26.02-.44.25-.42.5.29,3.14,28.59,313.92,27.81,321.43-.79,7.55-8.11,73.92-8.18,74.59-.03.25.16.48.41.51.06,0,.12,0,.17-.01Z"/>
        <path class="cls-3" d="m331.83,1197.99c.09-.02.18-.08.24-.16,3.19-3.93,319.09-392.82,322.47-396.66,3.41-3.86,113.76-167.6,118.45-174.57.14-.21.09-.5-.13-.64-.21-.14-.5-.09-.64.13-1.15,1.71-115,170.66-118.38,174.48-3.4,3.84-319.31,392.76-322.5,396.68-.16.2-.13.49.07.65.12.1.27.13.41.09Z"/>
        <path class="cls-27" d="m316.3,813.73s-106.67,129.72-120.4,143.76c-13.72,14.04-39.93,25.83-42.82,24.74-2.89-1.09,91.98-145.87,98.63-155.81s63.04-20.64,64.59-12.7Z"/>
        <path class="cls-8" d="m316.3,813.73s.25,3.28-.24,5.14-97.74,126.98-117.95,142.25c-20.21,15.27-36.92,23.18-40.29,23.57-3.36.4-4.74-2.46-4.74-2.46,0,0,22.39-10.78,35.42-21.85,13.03-11.07,123.93-148.01,125.13-148.72,1.19-.7,2.67,2.06,2.67,2.06Z"/>
        <path class="cls-3" d="m173.96,971.24c.09-.03.18-.08.25-.16l124.75-158.95c.16-.2.12-.49-.08-.65-.2-.16-.49-.12-.65.08l-124.75,158.96c-.16.2-.12.49.08.65.12.09.27.12.41.08Z"/>
        <path class="cls-3" d="m322.09,691.48c.22-.06.37-.28.34-.51-.14-.98-13.99-97.66-14.31-101.4-.32-3.81-1.19-4.64-1.36-4.77-.21-.15-.5-.11-.65.09-.15.2-.11.5.09.65h0s.71.74,1,4.11c.32,3.76,13.74,97.46,14.31,101.45.04.25.27.43.52.39.02,0,.04,0,.05-.01Z"/>
        <path class="cls-3" d="m158.85,980.34c.21-.06.41-.19.54-.39l103.67-158.92c.28-.43.16-1-.27-1.28-.43-.28-1-.16-1.28.27l-103.67,158.92c-.28.43-.16,1,.27,1.28.23.15.5.18.74.12Z"/>
        <path class="cls-3" d="m298.79,687.64c.4-.11.7-.48.69-.92l-2.34-104.12c-.01-.51-.44-.92-.95-.91-.51.01-.92.44-.91.95l2.34,104.12c.01.51.44.92.95.91.08,0,.15-.01.22-.03Z"/>
        <path class="cls-21" d="m772.89,725.77c5.99-38.12,58.31-33.65,77.13-9.78,18.76,23.8,21.01,64.52-7.13,81.99-28.14,17.48-78.93-15.4-69.99-72.22Z"/>
        <path class="cls-25" d="m839.06,711.1c-3.13-6.78-26.44-18.74-47.53-8.36-21.09,10.38-20.53,41.19-15.43,57.8,5.11,16.61,24.89,35.87,32.99,35.58s8.04-2.14,8.04-2.14c0,0-19.76-5.59-29.73-36.52-9.97-30.93,4.25-45.56,18.26-49.24,14.02-3.68,30.61,5.66,31.79,5.9,1.18.24,1.61-3.03,1.61-3.03Z"/>
        <path class="cls-14" d="m798.09,710.72c21.9-9.95,48.9,5.04,57.08,32.81,6.98,23.71-10.17,44.31-27.05,45.81-16.89,1.49-33.57-10.62-40.71-31.87-7.14-21.24-2.51-40.75,10.68-46.75Z"/>
        <path class="cls-13" d="m997.27,303.83c.21-5.16-16.6-16.02-33.09-15.17-16.49.85-32.53,28.15-32.83,41.4-.3,13.25,2.17,17.25,2.17,17.25l6.35-3.36s-3.87-26.45,10.92-39.3c14.79-12.84,25.61-7.73,33.15-4.53,7.53,3.2,13.33,3.7,13.33,3.7Z"/>
        <path class="cls-28" d="m334.19,705.73c-6.73,7.36-21.56,19.9-51.49,39.37-29.92,19.47-53.43,35.23-53.43,35.23L4.73,697.7s162.2,40.2,193.34,44.19c31.14,3.99,48.19,2.44,75.01-5.62,26.83-8.06,52.48-31.72,52.48-31.72l8.63,1.18Z"/>
        <path class="cls-12" d="m809.69,754.95c-9.8-11.54,4.21-30.68,18.54-16.34,14.33,14.34-5.84,31.31-18.54,16.34Z"/>
      </g>
      <path class="cls-30" d="m808.29,544.8c-3.08-4.95,7.23-12.52,10.46-7.54,3.23,4.98-7.54,12.22-10.46,7.54Z"/>
      <path class="cls-30" d="m968.9,447.09c-3.08-4.95,7.23-12.52,10.46-7.54s-7.54,12.22-10.46,7.54Z"/>
      <path class="cls-30" d="m502.94,715.57c-3.08-4.95,7.23-12.52,10.46-7.54s-7.54,12.22-10.46,7.54Z"/>
    </g>
  </g>
</svg>